<svg width="810" height="436" viewBox="0 0 810 436" fill="none" xmlns="http://www.w3.org/2000/svg">
<g clip-path="url(#clip0)">
<path d="M28.0966 415.894C28.0966 415.894 7.98065 414.683 10.3506 428.757C10.3506 428.757 9.8747 431.241 12.1352 432.371C12.1352 432.371 12.1732 431.326 14.2005 431.682C14.9219 431.804 15.6552 431.839 16.3849 431.787C17.3727 431.72 18.3116 431.333 19.0594 430.685V430.685C19.0594 430.685 24.713 428.353 26.9164 419.129C26.9164 419.129 28.5439 417.115 28.4773 416.597L25.0842 418.022C25.0842 418.022 26.2406 420.468 25.3316 422.496C25.3316 422.496 25.2174 418.112 24.5655 418.221C24.4322 418.245 22.8047 419.072 22.8047 419.072C22.8047 419.072 24.7987 423.346 23.2806 426.424C23.2806 426.424 23.8516 421.176 22.167 419.376L19.7875 420.772C19.7875 420.772 22.1241 425.17 20.5394 428.757C20.5394 428.757 20.9439 423.251 19.2878 421.109L17.1225 422.796C17.1225 422.796 19.3116 427.132 17.9744 430.105C17.9744 430.105 17.803 423.698 16.6514 423.214C16.6514 423.214 14.7478 424.881 14.467 425.588C14.467 425.588 15.9709 428.733 15.0381 430.395C15.0381 430.395 14.467 426.12 14.0007 426.12C14.0007 426.12 12.0971 428.947 11.9163 430.87C11.9163 430.87 11.9972 427.982 13.5391 425.831C12.4507 426.035 11.4463 426.553 10.6504 427.322C10.6504 427.322 10.9454 425.322 14.0054 425.147C14.0054 425.147 15.5664 423.005 15.9851 422.872C15.9851 422.872 12.9394 422.62 11.093 423.437C11.093 423.437 12.7158 421.537 16.5419 422.406L18.6834 420.663C18.6834 420.663 14.6717 420.117 12.9727 420.72C12.9727 420.72 14.9287 419.053 19.2593 420.269L21.5864 418.882C21.5864 418.882 18.1647 418.145 16.1279 418.407C16.1279 418.407 18.2789 417.248 22.2669 418.502L23.9325 417.756C23.9325 417.756 21.4246 417.281 20.6917 417.186C19.9588 417.091 19.9208 416.906 19.9208 416.906C21.5078 416.642 23.1372 416.823 24.6273 417.428C24.6273 417.428 28.1584 416.117 28.0966 415.894Z" fill="#6C63FF"/>
<path opacity="0.1" d="M14.2387 436C22.1025 436 28.4774 434.924 28.4774 433.597C28.4774 432.269 22.1025 431.193 14.2387 431.193C6.37487 431.193 0 432.269 0 433.597C0 434.924 6.37487 436 14.2387 436Z" fill="#6C63FF"/>
<path d="M469.786 383.933C469.786 383.933 458.44 383.249 459.792 391.181C459.723 391.584 459.783 391.999 459.964 392.365C460.145 392.732 460.438 393.033 460.801 393.223C460.801 393.223 460.801 392.634 461.962 392.834C462.369 392.9 462.783 392.92 463.195 392.891C463.751 392.854 464.281 392.637 464.703 392.273C464.703 392.273 467.892 390.958 469.134 385.757C469.134 385.757 470.047 384.621 470.014 384.332L468.111 385.149C468.111 385.149 468.763 386.526 468.249 387.675C468.249 387.675 468.187 385.201 467.82 385.258C467.744 385.258 466.821 385.733 466.821 385.733C466.821 385.733 467.949 388.108 467.102 389.875C467.102 389.875 467.421 386.92 466.474 385.904L465.122 386.687C465.122 386.687 466.44 389.172 465.546 391.195C465.546 391.195 465.779 388.089 464.841 386.882L463.618 387.832C463.618 387.832 464.855 390.274 464.094 391.955C464.094 391.955 463.994 388.34 463.347 388.07C462.884 388.46 462.47 388.905 462.114 389.395C462.114 389.395 462.961 391.167 462.438 392.107C462.438 392.107 462.114 389.699 461.848 389.689C461.848 389.689 460.787 391.281 460.677 392.373C460.726 391.359 461.041 390.377 461.591 389.523C460.977 389.639 460.411 389.933 459.963 390.369C459.963 390.369 460.13 389.238 461.867 389.138C461.867 389.138 462.747 387.932 462.985 387.856C462.985 387.856 461.267 387.713 460.225 388.174C460.225 388.174 461.144 387.11 463.299 387.595L464.503 386.611C464.503 386.611 462.243 386.303 461.286 386.645C461.286 386.645 462.39 385.695 464.827 386.388L466.14 385.605C465.131 385.384 464.098 385.296 463.066 385.343C463.066 385.343 464.275 384.688 466.526 385.396L467.478 384.973C467.478 384.973 466.05 384.697 465.655 384.655C465.26 384.612 465.217 384.498 465.217 384.498C466.113 384.349 467.032 384.451 467.873 384.792C467.873 384.792 469.819 384.056 469.786 383.933Z" fill="#6C63FF"/>
<path opacity="0.1" d="M461.972 395.266C466.406 395.266 470 394.66 470 393.912C470 393.164 466.406 392.558 461.972 392.558C457.538 392.558 453.943 393.164 453.943 393.912C453.943 394.66 457.538 395.266 461.972 395.266Z" fill="#6C63FF"/>
<path d="M446.458 405.53C446.458 405.53 432.761 404.708 434.399 414.293C434.315 414.78 434.388 415.28 434.607 415.723C434.826 416.166 435.179 416.528 435.617 416.759C435.617 416.759 435.617 416.046 437.045 416.284C437.536 416.366 438.036 416.39 438.534 416.355C439.206 416.308 439.844 416.045 440.352 415.604C440.352 415.604 444.202 414.018 445.696 407.739C445.696 407.739 446.805 406.366 446.762 406.014L444.449 407.002C444.449 407.002 445.239 408.665 444.621 410.047C444.621 410.047 444.545 407.059 444.102 407.131C444.012 407.131 442.898 407.705 442.898 407.705C442.898 407.705 444.259 410.608 443.231 412.712C443.231 412.712 443.621 409.14 442.474 407.919L440.847 408.869C440.847 408.869 442.436 411.866 441.361 414.308C441.361 414.308 441.637 410.56 440.504 409.083L439.034 410.228C439.034 410.228 440.523 413.182 439.614 415.205C439.614 415.205 439.495 410.845 438.71 410.517C438.71 410.517 437.42 411.648 437.225 412.118C437.225 412.118 438.249 414.26 437.616 415.391C437.616 415.391 437.225 412.484 436.907 412.469C436.907 412.469 435.622 414.393 435.479 415.714C435.543 414.494 435.925 413.311 436.588 412.284C435.846 412.424 435.161 412.778 434.617 413.301C434.617 413.301 434.817 411.942 436.902 411.823C436.902 411.823 437.963 410.361 438.249 410.27C438.249 410.27 436.174 410.099 434.917 410.655C434.917 410.655 436.026 409.373 438.629 409.957L440.085 408.769C440.085 408.769 437.354 408.394 436.197 408.807C436.197 408.807 437.53 407.672 440.481 408.499L442.065 407.549C442.065 407.549 439.738 407.05 438.353 407.23C438.353 407.23 439.814 406.442 442.532 407.297L443.664 406.789C443.664 406.789 441.956 406.451 441.461 406.399C440.966 406.347 440.933 406.209 440.933 406.209C442.013 406.03 443.121 406.153 444.135 406.565C444.135 406.565 446.496 405.682 446.458 405.53Z" fill="#6C63FF"/>
<path opacity="0.1" d="M437.021 419.214C442.375 419.214 446.715 418.483 446.715 417.58C446.715 416.678 442.375 415.946 437.021 415.946C431.667 415.946 427.327 416.678 427.327 417.58C427.327 418.483 431.667 419.214 437.021 419.214Z" fill="#6C63FF"/>
<path opacity="0.1" d="M383.326 413.88C407.593 413.88 427.265 410.816 427.265 407.036C427.265 403.256 407.593 400.191 383.326 400.191C359.059 400.191 339.387 403.256 339.387 407.036C339.387 410.816 359.059 413.88 383.326 413.88Z" fill="#6C63FF"/>
<path opacity="0.1" d="M244.285 431.692C271.553 431.692 293.658 429.478 293.658 426.747C293.658 424.017 271.553 421.803 244.285 421.803C217.016 421.803 194.911 424.017 194.911 426.747C194.911 429.478 217.016 431.692 244.285 431.692Z" fill="#6C63FF"/>
<path opacity="0.1" d="M94.6976 426.781C115.395 426.781 132.174 425.747 132.174 424.472C132.174 423.197 115.395 422.164 94.6976 422.164C74 422.164 57.2212 423.197 57.2212 424.472C57.2212 425.747 74 426.781 94.6976 426.781Z" fill="#6C63FF"/>
<path opacity="0.1" d="M161.237 78.2681C175.138 65.9186 196.962 63.3869 216.821 64.3702C279.206 67.4623 335.518 97.5238 384.23 131.528C401.867 143.834 419.227 157.101 430.672 174.053C453.991 208.555 447.062 256.357 414.663 284.785C403.637 294.456 390.274 301.884 376.554 308.444C352.16 320.133 325.838 329.514 298.156 332.193C278.411 334.093 258.423 332.549 238.798 329.889C183.956 322.461 130.128 306.045 85.0133 277.974C65.2257 265.624 46.5707 250.33 38.414 230.404C30.2572 210.479 35.4777 185.229 55.6841 173.435C64.0407 168.557 74.0344 166.353 83.814 164.287C98.2145 161.243 112.843 158.241 125.84 152.047C139.26 145.654 155.15 133.29 152.49 119.14C149.644 103.955 147.355 90.6176 161.237 78.2681Z" fill="white"/>
<path opacity="0.9" d="M276.426 248.088V157.395H288.799V130.321H200.141V157.395H212.514V248.088C195.427 254.565 180.717 266.075 170.335 281.09C159.954 296.106 154.393 313.916 154.389 332.16C154.389 381.819 194.725 422.074 244.48 422.074C294.234 422.074 334.566 381.819 334.566 332.16C334.562 313.915 328.998 296.102 318.614 281.087C308.23 266.071 293.517 254.562 276.426 248.088V248.088Z" fill="#96B7FE"/>
<path opacity="0.1" d="M276.426 157.115H212.495V158.336H276.426V157.115Z" fill="black"/>
<path d="M194.073 329.747C194.073 329.747 248.325 328.797 275.451 315.246C302.577 301.694 318.076 313.792 316.62 322.014C315.164 330.236 307.421 346.181 276.422 348.138C245.422 350.095 194.073 329.747 194.073 329.747Z" fill="#6C63FF"/>
<path opacity="0.1" d="M194.073 329.747C194.073 329.747 248.325 328.797 275.451 315.246C302.577 301.694 318.076 313.792 316.62 322.014C315.164 330.236 307.421 346.181 276.422 348.138C245.422 350.095 194.073 329.747 194.073 329.747Z" fill="black"/>
<path d="M170.84 321.055C170.84 321.055 165.044 401.303 241.068 402.751C317.091 404.2 316.625 322.005 316.625 322.005C316.625 322.005 288.547 352.456 222.179 327.32C222.179 327.339 187.791 318.152 170.84 321.055Z" fill="white"/>
<path opacity="0.1" d="M316.378 322.294C314.859 340.781 305.013 398.647 241.096 397.427C178.44 396.244 171.345 341.574 170.788 322.342C170.441 332.663 170.75 401.402 241.082 402.747C317.125 404.172 316.639 322 316.639 322C316.639 322 316.544 322.119 316.378 322.294Z" fill="black"/>
<path opacity="0.3" d="M241.529 296.275C246.978 296.275 251.395 291.866 251.395 286.428C251.395 280.99 246.978 276.582 241.529 276.582C236.081 276.582 231.664 280.99 231.664 286.428C231.664 291.866 236.081 296.275 241.529 296.275Z" fill="#6C63FF"/>
<path opacity="0.3" d="M247.164 253.132C250.536 253.132 253.269 250.404 253.269 247.038C253.269 243.673 250.536 240.944 247.164 240.944C243.792 240.944 241.058 243.673 241.058 247.038C241.058 250.404 243.792 253.132 247.164 253.132Z" fill="#6C63FF"/>
<path opacity="0.3" d="M233.539 217.96C236.911 217.96 239.645 215.232 239.645 211.866C239.645 208.5 236.911 205.772 233.539 205.772C230.167 205.772 227.433 208.5 227.433 211.866C227.433 215.232 230.167 217.96 233.539 217.96Z" fill="#6C63FF"/>
<path opacity="0.2" d="M181.224 294.023C180.701 298.175 180.806 303.371 184.522 305.309C181.405 303.685 194.183 285.265 192.37 281.503C188.491 273.476 181.7 290.167 181.224 294.023Z" fill="white"/>
<path opacity="0.3" d="M228.604 112.224C234.052 112.224 238.469 107.816 238.469 102.378C238.469 96.9401 234.052 92.5318 228.604 92.5318C223.156 92.5318 218.739 96.9401 218.739 102.378C218.739 107.816 223.156 112.224 228.604 112.224Z" fill="#6C63FF"/>
<path opacity="0.3" d="M258.2 92.8168C262.25 92.8168 265.533 89.5397 265.533 85.4973C265.533 81.4549 262.25 78.1779 258.2 78.1779C254.15 78.1779 250.866 81.4549 250.866 85.4973C250.866 89.5397 254.15 92.8168 258.2 92.8168Z" fill="#6C63FF"/>
<path opacity="0.3" d="M237.061 69.6092C239.166 69.6092 240.873 67.9058 240.873 65.8046C240.873 63.7034 239.166 62 237.061 62C234.955 62 233.249 63.7034 233.249 65.8046C233.249 67.9058 234.955 69.6092 237.061 69.6092Z" fill="#6C63FF"/>
<path opacity="0.9" d="M135.063 187.005H55.3367V210.607H67.4862V394.738C67.4381 398.402 68.1195 402.039 69.4909 405.437C70.8623 408.836 72.8964 411.929 75.475 414.536C78.0537 417.144 81.1256 419.214 84.5124 420.628C87.8992 422.041 91.5336 422.769 95.2045 422.769C98.8754 422.769 102.51 422.041 105.897 420.628C109.283 419.214 112.355 417.144 114.934 414.536C117.513 411.929 119.547 408.836 120.918 405.437C122.289 402.039 122.971 398.402 122.923 394.738V210.607H135.063V187.005Z" fill="#96B7FE"/>
<path d="M85.9556 252.325C85.9556 252.325 105.686 245.29 111.178 250.292C111.178 250.292 103.188 262.014 95.8303 261.544C88.473 261.074 85.9556 252.325 85.9556 252.325Z" fill="#6C63FF"/>
<path opacity="0.1" d="M85.9556 252.325C85.9556 252.325 105.686 245.29 111.178 250.292C111.178 250.292 103.188 262.014 95.8303 261.544C88.473 261.074 85.9556 252.325 85.9556 252.325Z" fill="black"/>
<path d="M111.168 250.311V383.952C111.168 386.168 110.731 388.364 109.881 390.412C109.031 392.46 107.785 394.321 106.215 395.888C104.644 397.456 102.78 398.699 100.728 399.547C98.6755 400.396 96.4762 400.832 94.2551 400.832C89.7695 400.832 85.4675 399.054 82.2957 395.888C79.1238 392.722 77.3419 388.429 77.3419 383.952V250.311C77.3419 250.311 85.4844 248.121 93.1558 252.814C100.827 257.507 111.168 250.311 111.168 250.311Z" fill="white"/>
<path opacity="0.1" d="M122.913 210.46H67.4767V211.548H122.913V210.46Z" fill="black"/>
<path opacity="0.1" d="M94.2551 392.705C92.0336 392.705 89.8339 392.269 87.7816 391.42C85.7293 390.571 83.8646 389.328 82.294 387.76C80.7234 386.191 79.4777 384.33 78.628 382.281C77.7783 380.233 77.3413 378.037 77.3419 375.82V384.26C77.3419 388.737 79.1238 393.031 82.2957 396.197C85.4675 399.363 89.7695 401.141 94.2551 401.141C98.7408 401.141 103.043 399.363 106.215 396.197C109.386 393.031 111.168 388.737 111.168 384.26V375.82C111.169 378.037 110.732 380.233 109.882 382.281C109.033 384.33 107.787 386.191 106.216 387.76C104.646 389.328 102.781 390.571 100.729 391.42C98.6763 392.269 96.4766 392.705 94.2551 392.705V392.705Z" fill="black"/>
<path opacity="0.3" d="M94.2599 237.187C96.1628 237.187 97.7054 235.648 97.7054 233.748C97.7054 231.849 96.1628 230.31 94.2599 230.31C92.357 230.31 90.8145 231.849 90.8145 233.748C90.8145 235.648 92.357 237.187 94.2599 237.187Z" fill="#6C63FF"/>
<path opacity="0.3" d="M105.534 223.745C106.745 223.745 107.728 222.765 107.728 221.556C107.728 220.346 106.745 219.366 105.534 219.366C104.322 219.366 103.34 220.346 103.34 221.556C103.34 222.765 104.322 223.745 105.534 223.745Z" fill="#6C63FF"/>
<path opacity="0.3" d="M90.1862 219.371C91.3978 219.371 92.38 218.39 92.38 217.181C92.38 215.972 91.3978 214.991 90.1862 214.991C88.9745 214.991 87.9923 215.972 87.9923 217.181C87.9923 218.39 88.9745 219.371 90.1862 219.371Z" fill="#6C63FF"/>
<path opacity="0.2" d="M71.7693 277.613C71.2458 281.764 71.3505 286.96 75.0672 288.898C71.9453 287.274 84.7278 268.859 82.9146 265.092C79.0266 257.075 72.2452 273.761 71.7693 277.613Z" fill="white"/>
<path opacity="0.3" d="M101.408 172.238C106.031 172.238 109.779 168.498 109.779 163.883C109.779 159.269 106.031 155.529 101.408 155.529C96.7845 155.529 93.0367 159.269 93.0367 163.883C93.0367 168.498 96.7845 172.238 101.408 172.238Z" fill="#6C63FF"/>
<path opacity="0.3" d="M76.295 155.771C79.7328 155.771 82.5196 152.989 82.5196 149.558C82.5196 146.127 79.7328 143.345 76.295 143.345C72.8572 143.345 70.0703 146.127 70.0703 149.558C70.0703 152.989 72.8572 155.771 76.295 155.771Z" fill="#6C63FF"/>
<path opacity="0.3" d="M94.2313 136.078C96.0185 136.078 97.4674 134.632 97.4674 132.848C97.4674 131.064 96.0185 129.618 94.2313 129.618C92.4441 129.618 90.9952 131.064 90.9952 132.848C90.9952 134.632 92.4441 136.078 94.2313 136.078Z" fill="#6C63FF"/>
<path d="M426.332 276.368C426.332 276.368 419.027 240.108 421.821 235.596C421.821 235.596 421.921 231.402 421.754 226.058C421.754 225.854 421.754 225.65 421.754 225.441C422.243 225.774 422.755 226.072 423.286 226.334C425.861 227.659 428.82 228.041 431.648 227.412L429.425 224.952C428.897 224.363 428.34 223.731 428.226 222.952C428.196 222.203 428.36 221.458 428.702 220.791C430.801 215.495 430.929 208.831 426.865 204.789C423.448 201.388 422.611 196.999 418.918 193.897C416.205 191.622 414.716 188.288 413.307 185.072C412.117 182.346 410.927 179.601 410.237 176.713C409.704 174.456 409.495 172.124 408.762 169.92C408.029 167.716 406.668 165.574 404.531 164.591C403.739 164.315 402.97 163.975 402.233 163.575C401.319 162.962 400.772 161.964 400.115 161.095C396.784 156.673 385.553 159.276 380.242 161.071C378.8 161.523 377.464 162.261 376.316 163.242L376.363 163.161L376.497 162.967C375.917 163.436 375.416 163.994 375.012 164.62C374.236 165.845 373.913 167.284 373.27 168.576C372.49 170.144 368.159 174.518 370.02 176.28C370.148 176.398 370.294 176.495 370.453 176.565C371.148 176.848 371.91 176.924 372.647 176.784C372.618 176.846 372.59 176.907 372.566 176.969C371.934 178.524 371.61 180.188 371.614 181.866C371.645 185.38 373.074 188.738 375.585 191.2C378.096 193.663 381.485 195.03 385.006 194.999C386.397 195.002 387.781 194.79 389.108 194.372C389.141 194.539 389.17 194.705 389.198 194.871C389.198 194.942 389.198 195.009 389.232 195.075L388.998 195.403L388.96 195.341L382.017 205.031C380.956 205.772 374.841 210.189 374.512 213.5C374.151 217.124 373.789 221.37 373.789 221.37L373.741 222.278C373.438 222.53 373.084 222.714 372.703 222.818C372.322 222.921 371.923 222.941 371.533 222.876C369.368 222.52 369.368 230.837 369.368 230.837C369.368 230.837 367.94 232.162 366.936 231.012C365.932 229.863 363.329 233.753 363.329 233.753L346.915 234.461H346.539L345.654 231.725C345.557 231.442 345.354 231.208 345.088 231.072C344.822 230.935 344.513 230.907 344.226 230.993C344.157 231.012 344.09 231.04 344.027 231.074L343.969 231.112C343.929 231.135 343.891 231.162 343.855 231.193C343.833 231.208 343.812 231.225 343.793 231.245C343.761 231.273 343.731 231.303 343.703 231.335C343.686 231.355 343.67 231.376 343.655 231.397L343.627 231.426C343.525 231.566 343.457 231.729 343.429 231.901C343.401 232.072 343.413 232.248 343.465 232.414L344.226 234.76C341.062 235.397 337.821 237.187 340.462 242.127L327.08 239.662L331.411 243.286L353.778 247.893C353.483 248.425 353.678 249.19 354.601 250.268C358.575 254.932 365.837 256.196 368.754 256.528C369.52 258.244 370.478 259.867 371.609 261.368L371.352 266.014C371.352 266.014 363.966 301.443 362.61 303.243C363.28 302.465 363.893 301.64 364.442 300.773C362.296 308.054 359.298 318.019 358.513 319.511C357.247 321.886 356.076 331.537 357.518 332.16C357.97 332.35 359.222 332.259 361.025 332.122V332.92L360.945 363.2C360.945 363.2 361.306 381.776 360.312 383.543C359.317 385.31 359.05 389.024 359.05 389.024C359.05 389.024 355.063 396.353 351.912 399.298L351.841 399.36L351.741 398.666C351.741 398.666 347.934 403.445 339.567 403.179C339.567 403.179 334.518 406.451 342.004 406.627C349.49 406.803 359.046 406.361 359.046 406.361C359.046 406.361 365.708 396.192 371.309 397.517V405.212H373.023V397.451C373.817 396.928 374.496 396.249 375.02 395.456C375.543 394.664 375.9 393.773 376.068 392.838C376.216 391.878 376.11 390.895 375.76 389.988C375.41 389.08 374.829 388.28 374.074 387.666C373.735 387.359 373.462 386.985 373.274 386.569C373.086 386.152 372.986 385.701 372.98 385.244L372.918 385.296C372.918 385.144 372.88 384.987 372.856 384.821C372.38 380.84 371.757 372.652 373.927 366.582C376.901 358.265 377.805 346.685 375.64 339.783C374.943 337.58 374.371 335.339 373.927 333.072C373.875 332.782 373.822 332.511 373.779 332.255C375.262 332.456 376.729 332.756 378.172 333.152C383.197 334.53 394.176 334.786 403.551 334.715C403.575 334.972 403.603 335.238 403.632 335.508C403.804 337.375 404.158 339.22 404.688 341.018C405.859 344.561 406.402 360.122 406.402 360.122C406.402 360.122 407.92 372.923 407.092 378.138C406.616 381.035 406.216 383.942 405.954 386.863V386.92C405.954 386.92 403.47 393.993 401.671 397.845C401.624 397.945 401.581 398.039 401.533 398.134C401.047 398.179 400.567 398.283 400.106 398.443C400.106 398.443 397.674 403.307 395.237 404.105C392.801 404.903 393.614 407.553 399.116 406.58C404.617 405.606 412.917 404.813 412.917 404.813L413.278 399.859L414.968 397.75L414.539 402.69L416.343 402.338L416.105 396.325L418.87 392.872C418.87 392.872 422.201 389.908 417.247 384.075V384.199C417.195 384.113 417.143 384.028 417.085 383.947V383.918C416.267 382.645 415.61 380.275 416.809 376.067C418.975 368.467 420.236 361.566 420.236 361.566C420.236 361.566 425.076 343.084 419.256 334.335H419.517C418.92 333.104 418.497 331.797 418.261 330.45C418.232 330.288 418.209 330.122 418.18 329.975C422.463 329.728 426.713 328.949 430.153 327.277C430.115 327.225 428.045 283.355 426.332 276.368ZM371.685 245.78V245.865L370.795 245.908L371.685 245.78ZM368.654 246.198C368.508 246.229 368.371 246.294 368.254 246.388C367.875 246.925 367.636 247.549 367.559 248.202L366.179 247.889C366.179 247.889 365.228 247.684 363.8 247.456L363.138 246.796C364.975 246.625 366.86 246.421 368.654 246.198V246.198Z" fill="url(#paint0_linear)"/>
<path d="M414.316 396.368L413.788 402.628L415.553 402.272L415.287 395.489L414.316 396.368Z" fill="#1D2366"/>
<path d="M374.051 366.667C371.923 372.714 372.533 380.878 373.008 384.845C373.185 386.312 373.346 387.219 373.346 387.219C373.346 387.219 370.167 394.449 369.901 394.715C369.634 394.981 360.535 400.519 360.535 400.519L354.177 404.219C354.177 404.219 347.729 401.398 350.846 400.419C351.477 400.166 352.046 399.778 352.512 399.284C355.596 396.349 359.503 389.048 359.503 389.048C359.503 389.048 359.764 385.348 360.735 383.586C361.706 381.824 361.354 363.314 361.354 363.314L361.435 333.133V329.201L373.532 329.291C373.61 330.627 373.785 331.955 374.055 333.266C374.491 335.525 375.054 337.758 375.74 339.954C377.844 346.846 376.963 358.379 374.051 366.667Z" fill="#FFB0B1"/>
<path opacity="0.1" d="M373.342 387.219C373.342 387.219 370.163 394.449 369.896 394.715C369.63 394.981 360.535 400.519 360.535 400.519L354.177 404.219C354.177 404.219 347.729 401.398 350.846 400.419C351.477 400.166 352.046 399.778 352.512 399.284L352.788 401.212L354.91 401.122L373.008 384.845C373.18 386.307 373.342 387.219 373.342 387.219Z" fill="black"/>
<path d="M373.123 385.263L354.887 401.659L352.764 401.744L352.326 398.662C352.326 398.662 348.614 403.412 340.401 403.155C340.401 403.155 335.456 406.418 342.78 406.594C350.104 406.77 359.474 406.328 359.474 406.328C359.474 406.328 366.008 396.192 371.481 397.517V405.183H373.161V397.427C373.942 396.901 374.609 396.224 375.121 395.434C375.633 394.645 375.98 393.76 376.14 392.834C376.286 391.879 376.184 390.903 375.842 389.999C375.5 389.096 374.931 388.295 374.189 387.675C373.856 387.367 373.589 386.994 373.406 386.579C373.223 386.164 373.126 385.716 373.123 385.263V385.263Z" fill="#1D2366"/>
<path d="M415.996 376.095C414.82 380.29 415.463 382.65 416.262 383.918V383.947C417.302 385.516 418.025 387.273 418.389 389.119L418.466 389.518L410.166 401.592L405.664 403.355C405.664 403.355 398.421 400.889 399.744 400.182C400.077 400.006 400.596 399.094 401.172 397.807C402.947 394.007 405.383 386.949 405.383 386.949V386.887C405.636 383.975 406.045 381.078 406.497 378.19C407.306 372.999 405.821 360.241 405.821 360.241C405.821 360.241 405.293 344.732 404.141 341.203C403.623 339.41 403.278 337.571 403.109 335.713C402.871 333.494 402.818 331.685 402.818 331.685C402.818 331.685 407.577 325.073 416.329 332.212C417.025 332.785 417.638 333.452 418.151 334.193C424.191 342.742 419.332 361.651 419.332 361.651C419.332 361.651 418.113 368.519 415.996 376.095Z" fill="#FFB0B1"/>
<path opacity="0.1" d="M418.466 389.495L410.166 401.569L405.664 403.331C405.664 403.331 398.421 400.866 399.744 400.158C400.077 399.982 400.596 399.07 401.172 397.783C404.236 397.783 405.826 400.671 405.826 400.671L409.709 400.058C409.709 400.058 414.835 390.008 415.981 389.395C417.128 388.782 416.157 384.807 416.157 384.807V383.795L416.248 383.904V383.933C417.294 385.505 418.022 387.267 418.389 389.119L418.466 389.495Z" fill="black"/>
<path d="M406.102 400.951C406.102 400.951 403.894 396.9 399.658 398.396C399.658 398.396 397.279 403.245 394.9 404.039C392.52 404.832 393.31 407.473 398.707 406.504C404.103 405.535 412.217 404.742 412.217 404.742L412.569 399.806L418.042 392.843C418.042 392.843 421.311 389.889 416.453 384.075V385.087C416.453 385.087 417.404 389.053 416.277 389.67C415.149 390.288 410.009 400.334 410.009 400.334L406.102 400.951Z" fill="#1D2366"/>
<path opacity="0.1" d="M373.518 329.296C373.596 330.632 373.771 331.96 374.041 333.271C369.059 332.54 364.438 332.905 361.411 333.138V329.205L373.518 329.296Z" fill="black"/>
<path opacity="0.1" d="M418.642 335.29C418.642 335.29 411.56 335.632 403.128 335.703C402.89 333.485 402.837 331.675 402.837 331.675C402.837 331.675 407.596 325.063 416.348 332.202C417.044 332.776 417.658 333.442 418.171 334.183C418.308 334.56 418.466 334.929 418.642 335.29V335.29Z" fill="black"/>
<path d="M418.642 334.497C418.642 334.497 387.647 335.993 378.191 333.352C368.735 330.711 359.384 332.996 357.97 332.378C356.557 331.761 357.709 322.157 358.922 319.777C360.136 317.397 366.96 293.335 366.96 293.335L373.494 259.312L380.385 257.412L380.861 257.279L392.858 253.954L401.657 251.532C401.657 251.532 419.141 319.663 417.638 324.679C417.093 326.603 417.006 328.628 417.385 330.592C417.621 331.946 418.044 333.26 418.642 334.497V334.497Z" fill="#1D2366"/>
<path d="M350.737 236.043C350.737 236.043 344.55 242.654 349.233 246.354C353.916 250.054 357.004 246.711 357.004 246.711L350.737 236.043Z" fill="#C7DAF5"/>
<path opacity="0.1" d="M350.737 236.043C350.737 236.043 344.55 242.654 349.233 246.354C353.916 250.054 357.004 246.711 357.004 246.711L350.737 236.043Z" fill="black"/>
<path d="M400.762 192.506C400.762 192.506 400.039 193.19 398.945 194.211C397.388 195.66 395.085 197.783 393.039 199.564C390.183 202.024 387.875 203.839 388.708 202.286C389.541 200.732 389.384 198.063 388.97 195.55L388.884 195.052C388.539 193.206 388.081 191.384 387.514 189.594C387.514 189.594 392.087 183.695 394.619 181.367C395.57 180.498 396.222 180.128 396.256 180.736C396.303 181.562 396.927 183.367 397.683 185.324C397.712 185.381 397.736 185.443 397.76 185.5C398.274 186.815 398.849 188.188 399.359 189.361C400.134 191.162 400.762 192.506 400.762 192.506Z" fill="#FFB0B1"/>
<path opacity="0.1" d="M397.755 185.5C397.325 187.807 396.282 189.958 394.735 191.725C393.188 193.493 391.194 194.814 388.96 195.55C388.61 193.534 388.124 191.544 387.504 189.594C387.504 189.594 396.113 178.489 396.246 180.736C396.327 181.591 396.965 183.481 397.755 185.5Z" fill="black"/>
<path opacity="0.1" d="M388.113 198.519L389.227 196.956C389.227 196.956 389.965 201.45 392.682 199.469C395.399 197.488 395.537 214.383 395.537 214.383L392.615 257.882L371.552 256.623L372.147 235.606L374.527 225.028L380.423 209.624L383.954 204.537L388.113 198.519Z" fill="black"/>
<path d="M395.528 214.649L392.891 253.978L392.615 258.143L380.87 257.445L380.394 257.417L371.538 256.889L372.133 235.867L374.512 225.294L380.409 209.89L383.954 204.798L388.128 198.785L389.241 197.218C389.241 197.218 389.979 201.716 392.696 199.73L392.749 199.692C395.399 197.992 395.528 214.649 395.528 214.649Z" fill="#1D2366"/>
<path d="M374.841 221.589C374.841 221.589 373.784 223.793 371.662 223.441C369.539 223.09 369.544 231.373 369.544 231.373C369.544 231.373 368.116 232.694 367.164 231.549C366.213 230.405 363.633 234.28 363.633 234.28L347.562 234.988C347.562 234.988 354.701 238.246 353.302 248.121C353.302 248.121 377.572 246.62 378.381 244.321C379.19 242.023 374.841 221.589 374.841 221.589Z" fill="white"/>
<path opacity="0.03" d="M374.841 221.589C374.841 221.589 373.784 223.793 371.662 223.441C369.539 223.09 369.544 231.373 369.544 231.373C369.544 231.373 368.116 232.694 367.164 231.549C366.213 230.405 363.633 234.28 363.633 234.28L347.562 234.988C347.562 234.988 354.701 238.246 353.302 248.121C353.302 248.121 377.572 246.62 378.381 244.321C379.19 242.023 374.841 221.589 374.841 221.589Z" fill="black"/>
<path d="M328.127 240.184L332.367 243.799L367.25 251.114L362.92 246.711L328.127 240.184Z" fill="white"/>
<path d="M388.175 199.906C387.599 200.77 385.943 205.311 384.554 209.258C383.402 212.545 382.436 215.433 382.436 215.433C382.436 215.433 380.185 230.067 379.038 232.708C377.891 235.349 378.51 245.675 378.51 245.675L374.227 271.148C374.227 271.148 372.285 284.282 369.287 292.124C366.346 299.823 363.015 303.447 362.924 303.556C364.252 301.766 371.49 266.456 371.49 266.456L373.87 221.94C373.87 221.94 374.222 217.713 374.579 214.098C374.936 210.484 382.084 205.549 382.084 205.549L388.994 195.74C389.703 196.705 389.236 198.32 388.175 199.906Z" fill="white"/>
<path d="M370.153 257.108C370.153 257.108 359.998 256.671 355.053 250.762C350.109 244.853 366.446 248.387 366.446 248.387L370.681 249.337L370.153 257.108Z" fill="#FFB0B1"/>
<path opacity="0.1" d="M417.671 324.712C417.126 326.637 417.04 328.662 417.419 330.625C406.321 331.414 394.447 328.412 394.447 328.412C392.239 330.44 386.41 333.437 386.41 333.437L383.231 294.123C381.203 288.832 380.409 261.069 380.409 261.069C380.409 261.069 380.59 259.616 380.885 257.44C380.885 257.388 380.885 257.331 380.908 257.279C381.703 251.199 383.288 239.785 384.04 238.242C385.101 236.128 380.775 230.49 380.775 230.49L382.741 213.733L382.979 211.714C387.133 209.862 390.312 203.958 390.312 203.958L392.749 199.683C395.409 197.982 395.537 214.64 395.537 214.64L392.901 253.968L401.7 251.546C401.7 251.546 419.17 319.687 417.671 324.712Z" fill="black"/>
<path d="M429.064 327.443C416.967 333.437 394.976 327.885 394.976 327.885C392.768 329.913 386.938 332.91 386.938 332.91L383.759 293.596C381.732 288.309 380.937 260.547 380.937 260.547C380.937 260.547 383.497 239.833 384.554 237.719C384.863 237.102 384.716 236.185 384.349 235.197C382.544 230.488 381.88 225.42 382.412 220.406L383.259 213.21L383.497 211.192C387.647 209.339 390.826 203.43 390.826 203.43L393.039 199.564L397.113 192.439L399.04 189.067L399.364 189.361L401.867 191.622C401.867 191.622 402.928 192.496 404.517 193.84C407.982 196.752 413.969 201.882 417.052 205.017C419.77 207.786 420.626 218.535 420.86 226.628C421.026 231.953 420.926 236.128 420.926 236.128C418.185 240.621 425.338 276.763 425.338 276.763C427.032 283.726 429.064 327.443 429.064 327.443Z" fill="white"/>
<path opacity="0.03" d="M405.845 203.345C405.845 203.345 397.541 219.124 398.516 225.113C399.492 231.103 402.224 237.895 400.896 239.481C400.442 240.082 399.854 240.57 399.18 240.906C398.505 241.242 397.762 241.418 397.008 241.419C395.685 241.51 392.149 243.975 392.149 244.241C392.149 244.507 388.884 244.507 385.962 245.742C383.04 246.977 378.719 247.68 378.719 247.68C378.719 247.68 370.329 247.414 369.535 248.207C368.74 249 367.945 253.759 369.625 257.55C371.305 261.34 373.156 264.161 374.569 264.674C375.983 265.187 384.901 262.209 392.139 261.501C399.378 260.794 407.273 255.084 407.273 255.084C407.273 255.084 415.924 251.997 417.428 246.796C418.932 241.595 415.572 213.039 415.572 213.039C415.572 213.039 412.983 199.73 405.845 203.345Z" fill="black"/>
<path opacity="0.03" d="M404.779 202.024C404.779 202.024 396.479 217.799 397.45 223.793C398.421 229.787 401.158 236.575 399.83 238.161C399.376 238.762 398.788 239.249 398.114 239.585C397.439 239.922 396.696 240.097 395.942 240.099C394.619 240.189 391.088 242.654 391.088 242.92C391.088 243.186 387.818 243.181 384.901 244.416C381.984 245.651 377.658 246.354 377.658 246.354C377.658 246.354 369.268 246.093 368.473 246.886C367.679 247.68 366.884 252.439 368.564 256.229C370.244 260.02 372.095 262.841 373.508 263.354C374.922 263.867 383.84 260.884 391.083 260.181C398.326 259.478 406.192 253.75 406.192 253.75C406.192 253.75 414.844 250.667 416.348 245.466C417.852 240.265 414.492 211.709 414.492 211.709C414.492 211.709 411.932 198.41 404.779 202.024Z" fill="black"/>
<path d="M405.574 202.552C405.574 202.552 397.279 218.33 398.231 224.301C399.183 230.271 401.938 237.083 400.61 238.669C400.157 239.271 399.57 239.759 398.895 240.095C398.22 240.431 397.476 240.607 396.722 240.607C395.399 240.697 391.868 243.162 391.868 243.428C391.868 243.694 388.599 243.694 385.682 244.929C382.764 246.164 378.438 246.867 378.438 246.867C378.438 246.867 370.049 246.601 369.254 247.395C368.459 248.188 367.664 252.947 369.344 256.737C371.024 260.528 372.875 263.349 374.289 263.862C375.702 264.375 384.62 261.397 391.863 260.689C399.106 259.982 406.963 254.258 406.963 254.258C406.963 254.258 415.615 251.171 417.119 245.97C418.623 240.769 415.263 212.213 415.263 212.213C415.263 212.213 412.727 198.937 405.574 202.552Z" fill="white"/>
<path opacity="0.1" d="M405.398 244.858C405.398 244.858 398.773 243.538 401.072 245.742C403.37 247.946 403.366 249.883 406.192 249.793C409.019 249.703 405.398 244.858 405.398 244.858Z" fill="black"/>
<path opacity="0.1" d="M416.615 292.366C416.615 292.366 413.612 294.394 419.351 299.063C425.09 303.732 416.615 292.366 416.615 292.366Z" fill="black"/>
<path opacity="0.1" d="M410.87 309.023C410.87 309.289 409.814 318.718 413.788 321.097C417.761 323.477 410.87 309.023 410.87 309.023Z" fill="black"/>
<path d="M347.82 234.979C344.622 235.088 337.697 236.066 341.286 242.745C344.46 248.653 349.79 244.706 352.774 241.704C352.046 238.912 350.272 236.505 347.82 234.979V234.979Z" fill="#FFB0B1"/>
<path d="M352.826 241.652C352.874 241.61 352.917 241.562 352.959 241.519C352.917 241.562 352.874 241.61 352.826 241.652Z" fill="#FFB0B1"/>
<path opacity="0.1" d="M404.517 194.102C401.12 196.42 398.269 198.377 397.717 198.785C396.189 199.906 393.277 206.518 391.421 209.89C389.927 212.607 385.087 213.305 383.259 213.476L383.478 211.476C387.628 209.629 390.807 203.72 390.807 203.72L399.021 189.357L401.848 191.912C401.848 191.912 402.928 192.762 404.517 194.102Z" fill="black"/>
<path d="M404.517 193.84C401.12 196.154 398.269 198.115 397.717 198.519C396.189 199.645 393.277 206.252 391.421 209.624C389.927 212.341 385.087 213.039 383.259 213.21L383.497 211.192C387.647 209.339 390.826 203.43 390.826 203.43L399.04 189.067L401.867 191.622C401.867 191.622 402.928 192.477 404.517 193.84Z" fill="#DCE7FF"/>
<path d="M397.979 182.588C397.982 183.508 397.884 184.425 397.688 185.324C397.334 187.004 396.649 188.596 395.671 190.007C393.893 192.588 391.248 194.447 388.214 195.247C385.181 196.047 381.961 195.735 379.138 194.368C376.316 193.002 374.077 190.67 372.829 187.797C371.582 184.924 371.407 181.7 372.337 178.709C373.268 175.718 375.241 173.16 377.9 171.497C380.559 169.835 383.727 169.179 386.829 169.648C389.931 170.117 392.761 171.681 394.807 174.055C396.853 176.429 397.978 179.457 397.979 182.588V182.588Z" fill="#FFB0B1"/>
<path opacity="0.1" d="M420.874 226.628C419.078 225.525 417.615 223.955 416.643 222.088C415.905 220.629 415.415 218.953 414.149 217.912C413.017 216.991 411.484 216.763 410.08 216.35C405.431 214.977 401.514 210.736 401.381 205.9C401.314 203.625 402.024 201.35 401.7 199.098C401.517 197.821 401.008 196.612 400.22 195.588C399.835 195.095 399.408 194.636 398.945 194.216C398.326 193.631 397.674 193.066 397.112 192.444C396.748 192.062 396.429 191.64 396.161 191.185C395.951 190.813 395.78 190.42 395.651 190.012C394.785 187.314 395.57 184.103 394.6 181.372C394.6 181.325 394.566 181.272 394.547 181.225C394.176 180.251 393.429 179.282 392.396 179.206C391.364 179.13 390.464 179.99 389.474 180.379C387.399 181.182 385.158 179.814 383.43 178.418C381.703 177.021 379.752 175.425 377.548 175.739C376.097 175.943 374.945 176.936 373.608 177.449C373.298 177.562 372.98 177.651 372.656 177.715C373.793 174.895 375.877 172.557 378.551 171.103C381.226 169.649 384.324 169.169 387.314 169.746C390.304 170.323 393 171.921 394.939 174.265C396.878 176.609 397.939 179.553 397.94 182.593C397.943 183.513 397.846 184.43 397.65 185.329C397.679 185.386 397.702 185.448 397.726 185.505C398.24 186.82 398.816 188.193 399.325 189.366L401.828 191.627C401.828 191.627 402.89 192.501 404.479 193.845C407.944 196.757 413.93 201.887 417.014 205.021C419.77 207.786 420.626 218.535 420.874 226.628Z" fill="black"/>
<path d="M373.484 169.388C374.117 168.101 374.436 166.662 375.188 165.446C376.297 163.665 378.238 162.549 380.223 161.865C385.42 160.079 396.403 157.481 399.682 161.865C400.329 162.734 400.862 163.731 401.757 164.344C402.48 164.737 403.233 165.074 404.008 165.351C406.102 166.334 407.439 168.467 408.153 170.661C408.867 172.856 409.076 175.183 409.581 177.435C410.247 180.313 411.422 183.044 412.588 185.761C413.964 188.967 415.444 192.287 418.08 194.558C421.702 197.65 422.515 202.024 425.861 205.411C429.844 209.439 429.716 216.084 427.665 221.356C427.325 222.023 427.161 222.765 427.189 223.513C427.382 224.276 427.79 224.968 428.364 225.507L430.539 227.958C427.941 228.518 425.232 228.218 422.82 227.104C420.408 225.99 418.425 224.122 417.171 221.784C416.429 220.325 415.939 218.649 414.673 217.613C413.54 216.687 412.013 216.464 410.604 216.046C405.954 214.673 402.038 210.432 401.905 205.596C401.838 203.326 402.547 201.046 402.228 198.794C402.037 197.533 401.53 196.34 400.753 195.327C399.53 193.741 397.698 192.663 396.708 190.924C395.033 187.974 396.303 184.137 395.095 180.949C394.723 180 393.981 179.007 392.944 178.931C391.906 178.855 391.011 179.719 390.022 180.104C387.947 180.907 385.71 179.539 383.983 178.142C382.255 176.746 380.299 175.155 378.101 175.468C376.644 175.672 375.497 176.66 374.155 177.173C373.165 177.553 371.157 177.895 370.286 177.059C368.464 175.311 372.704 170.951 373.484 169.388Z" fill="#591D4B"/>
<path opacity="0.1" d="M418.409 220.325C417.671 218.867 417.181 217.191 415.915 216.15C414.782 215.224 413.25 215.001 411.846 214.588C407.197 213.215 403.28 208.973 403.147 204.138C403.075 201.863 403.789 199.588 403.466 197.336C403.283 196.059 402.773 194.85 401.986 193.826C400.767 192.24 398.93 191.157 397.945 189.418C396.265 186.469 397.541 182.631 396.332 179.444C395.961 178.494 395.219 177.501 394.181 177.425C393.144 177.349 392.249 178.209 391.259 178.594C389.184 179.401 386.943 178.033 385.22 176.637C383.497 175.24 381.537 173.649 379.333 173.958C377.906 174.162 376.735 175.15 375.393 175.668C374.403 176.048 372.395 176.39 371.524 175.554C369.701 173.796 373.941 169.436 374.708 167.878C375.341 166.591 375.659 165.152 376.411 163.936L376.54 163.736C375.98 164.209 375.498 164.767 375.112 165.389C374.351 166.605 374.037 168.044 373.408 169.331C372.642 170.894 368.402 175.254 370.225 177.007C371.091 177.843 373.08 177.482 374.094 177.121C375.431 176.608 376.578 175.62 378.034 175.411C380.233 175.102 382.189 176.694 383.916 178.09C385.644 179.487 387.885 180.854 389.955 180.052C390.95 179.667 391.816 178.798 392.877 178.879C393.938 178.959 394.662 179.923 395.033 180.897C396.242 184.065 394.966 187.903 396.641 190.872C397.631 192.605 399.468 193.688 400.687 195.275C401.474 196.298 401.984 197.507 402.167 198.785C402.49 201.036 401.776 203.312 401.848 205.587C401.995 210.427 405.898 214.668 410.547 216.036C411.951 216.45 413.483 216.673 414.616 217.604C415.882 218.639 416.367 220.316 417.11 221.774C418.364 224.113 420.346 225.98 422.758 227.094C425.17 228.208 427.88 228.508 430.477 227.949L429.454 226.79C424.962 226.866 420.446 224.329 418.409 220.325Z" fill="black"/>
<path opacity="0.1" d="M387.914 200.172C387.333 201.036 385.677 205.577 384.292 209.52C382.998 209.021 381.817 205.81 381.817 205.81L388.713 196.002C389.436 196.971 388.97 198.586 387.914 200.172Z" fill="black"/>
<path d="M388.175 199.906C387.599 200.77 385.943 205.311 384.554 209.258C383.259 208.76 382.084 205.549 382.084 205.549L388.994 195.74C389.703 196.705 389.236 198.32 388.175 199.906Z" fill="#DCE7FF"/>
<path d="M348.005 245.01L344.174 232.969C344.128 232.828 344.111 232.679 344.123 232.53C344.135 232.382 344.176 232.237 344.244 232.105C344.312 231.973 344.406 231.855 344.52 231.759C344.633 231.663 344.765 231.59 344.907 231.544V231.544C345.049 231.497 345.199 231.479 345.348 231.49C345.497 231.502 345.642 231.543 345.775 231.611C345.908 231.679 346.026 231.773 346.122 231.887C346.218 232.001 346.29 232.133 346.335 232.276L350.166 244.326L349.785 246.848L348.005 245.01Z" fill="#BE8B87"/>
<path opacity="0.1" d="M344.536 231.901C344.678 231.855 344.828 231.838 344.977 231.85C345.126 231.862 345.271 231.904 345.403 231.972C345.536 232.041 345.654 232.135 345.75 232.249C345.846 232.363 345.919 232.495 345.964 232.637L349.795 244.678L349.504 246.578L349.785 246.867L350.166 244.345L346.335 232.304C346.291 232.162 346.218 232.03 346.122 231.916C346.026 231.801 345.908 231.707 345.775 231.639C345.642 231.571 345.497 231.53 345.348 231.519C345.199 231.507 345.049 231.526 344.907 231.573V231.573C344.669 231.647 344.462 231.799 344.322 232.005C344.389 231.963 344.461 231.928 344.536 231.901V231.901Z" fill="white"/>
<path d="M348.005 245.01L350.156 244.326L349.842 246.397L349.775 246.848L349.147 246.193L348.005 245.01Z" fill="#EFC8C4"/>
<path d="M349.147 246.193C349.187 246.147 349.233 246.109 349.285 246.079C349.316 246.06 349.352 246.05 349.388 246.05C349.424 246.05 349.459 246.06 349.49 246.079C349.521 246.114 349.547 246.154 349.566 246.198C349.595 246.248 349.635 246.29 349.683 246.322C349.73 246.354 349.785 246.375 349.842 246.383L349.776 246.858L349.147 246.193Z" fill="#727A9C"/>
<path d="M344.155 237.235C344.155 237.235 351.841 237.192 350.028 240.45C348.215 243.709 345.393 244.108 345.393 244.108L344.155 237.235Z" fill="#FFB0B1"/>
</g>
<path d="M792.836 318.686C792.836 331.561 723.254 342 637.418 342C551.582 342 482 331.561 482 318.686C482 309.571 516.879 301.674 567.71 297.843C588.672 296.259 612.355 295.371 637.418 295.371C647.72 295.371 657.788 295.522 667.524 295.808C738.951 297.913 792.836 307.354 792.836 318.686Z" fill="white"/>
<path opacity="0.1" d="M617.364 323.449C650.313 323.449 677.024 320.194 677.024 316.179C677.024 312.164 650.313 308.909 617.364 308.909C584.414 308.909 557.704 312.164 557.704 316.179C557.704 320.194 584.414 323.449 617.364 323.449Z" fill="#034EDF"/>
<path d="M617.113 321.443C648.263 321.443 673.515 294.506 673.515 261.277C673.515 228.049 648.263 201.111 617.113 201.111C585.964 201.111 560.712 228.049 560.712 261.277C560.712 294.506 585.964 321.443 617.113 321.443Z" fill="white"/>
<path d="M634.911 296.876H599.817V328.964H634.911V296.876Z" fill="#0E56E1"/>
<path d="M680.784 304.647L678.779 315.678L691.814 317.683L700.337 312.669L699.836 304.647H680.784Z" fill="#575A89"/>
<path d="M615.108 97.5759C615.108 97.5759 614.105 109.108 611.598 109.609C609.092 110.11 617.113 130.166 617.113 130.166H629.145L638.671 127.659L634.159 116.628C634.159 116.628 628.143 108.606 632.655 102.088C637.167 95.5703 615.108 97.5759 615.108 97.5759Z" fill="#A0616A"/>
<path opacity="0.1" d="M615.108 97.5759C615.108 97.5759 614.105 109.108 611.598 109.609C609.092 110.11 617.113 130.166 617.113 130.166H629.145L638.671 127.659L634.159 116.628C634.159 116.628 628.143 108.606 632.655 102.088C637.167 95.5703 615.108 97.5759 615.108 97.5759Z" fill="black"/>
<path d="M590.04 185.819C590.04 185.819 577.005 210.888 587.534 215.902C598.062 220.916 600.569 220.415 600.569 221.919C600.569 223.423 598.563 222.922 599.566 225.428C600.569 227.935 597.561 237.963 600.569 243.98C603.577 249.996 602.574 254.509 602.574 254.509C602.574 254.509 602.574 255.01 603.577 257.016C604.579 259.021 605.081 260.525 604.579 261.528C604.078 262.531 601.07 269.049 604.078 270.553C607.086 272.057 622.628 273.06 624.132 270.553C625.636 268.046 622.628 266.542 624.132 265.038C625.636 263.534 626.639 263.032 625.636 262.029C624.633 261.027 623.631 248.492 623.631 248.492C623.631 248.492 626.137 233.952 625.135 231.946C624.132 229.941 622.628 227.935 623.631 226.431C624.633 224.927 625.636 225.428 626.137 223.423C626.639 221.417 627.641 216.905 627.641 216.905L633.156 216.404L646.191 218.911C646.191 218.911 660.73 234.955 676.774 239.969C676.774 239.969 681.286 244.481 682.79 244.481C684.294 244.481 684.294 244.481 683.792 245.484C683.291 246.487 681.787 246.487 682.79 247.489C683.792 248.492 685.296 246.988 684.294 248.492C683.291 249.996 682.288 249.996 683.291 250.999C684.294 252.002 682.79 257.517 682.79 258.018C682.79 258.52 678.278 305.65 679.782 306.652C681.286 307.655 702.342 310.664 703.846 306.652C705.35 302.641 702.844 297.628 702.844 297.628C702.844 297.628 710.364 237.462 708.358 233.451C706.353 229.44 699.334 211.39 661.733 199.858C661.733 199.858 651.205 197.852 651.205 196.348C651.205 194.844 650.202 185.318 648.197 184.816C646.191 184.315 634.66 183.814 634.66 183.814L620.121 188.326L600.067 184.816L590.04 185.819Z" fill="#2F2E41"/>
<path d="M607.587 270.052L605.081 279.076C605.081 279.076 603.075 293.617 605.582 297.126C607.551 299.883 611.067 303.259 617.587 303.851C619.414 304.019 621.244 303.557 622.773 302.544C624.303 301.53 625.441 300.025 625.998 298.277C626.073 298.067 626.12 297.849 626.137 297.628C626.137 296.625 624.633 284.592 624.633 284.592L622.127 272.057L621.625 268.547L607.587 270.052Z" fill="#2F2E41"/>
<path d="M680.784 313.17C680.784 313.17 678.278 310.664 677.776 313.17C677.275 315.677 675.269 326.206 678.779 326.708C682.288 327.209 715.879 332.223 719.388 330.218C722.897 328.212 729.415 325.204 725.404 323.7C721.393 322.195 709.862 317.683 709.862 317.683C709.862 317.683 703.345 309.159 702.342 308.658C701.34 308.157 695.825 309.159 693.318 311.165C690.811 313.17 680.784 313.17 680.784 313.17Z" fill="#2F2E41"/>
<path d="M627.14 108.105C635.724 108.105 642.682 101.146 642.682 92.5621C642.682 83.978 635.724 77.0192 627.14 77.0192C618.557 77.0192 611.598 83.978 611.598 92.5621C611.598 101.146 618.557 108.105 627.14 108.105Z" fill="#A0616A"/>
<path d="M625.636 127.659L619.62 121.141L612.951 108.105C612.951 108.105 608.089 106.601 607.086 109.108C606.083 111.615 588.035 119.637 588.035 119.637C588.035 119.637 592.547 161.753 590.542 165.764C588.536 169.775 585.027 185.819 588.035 187.323C591.043 188.828 605.081 187.323 609.593 189.329C614.105 191.334 627.14 191.334 630.65 188.828C634.159 186.321 635.162 184.315 638.671 185.819C641.659 187.1 648.643 143.322 650.654 130.276C650.824 129.18 650.683 128.059 650.248 127.039C649.813 126.019 649.101 125.141 648.193 124.505C643.695 121.349 635.593 115.911 634.159 116.628C632.154 117.631 625.636 127.659 625.636 127.659Z" fill="white"/>
<path d="M647.194 125.653C648.371 125.948 649.43 126.595 650.229 127.509C651.028 128.423 651.527 129.559 651.661 130.765L655.717 167.268C655.717 167.268 645.69 188.828 640.677 174.287C635.663 159.747 647.194 125.653 647.194 125.653Z" fill="white"/>
<path d="M646.191 170.778L657.221 167.769C657.221 167.769 659.226 181.808 661.232 181.808C663.237 181.808 654.213 189.83 649.701 188.828C645.189 187.825 638.671 184.315 638.17 181.808C637.668 179.301 642.682 168.772 642.682 168.772L646.191 170.778Z" fill="white"/>
<path d="M615.408 99.267C616.465 96.9366 616.281 94.2183 617.155 91.8132C617.623 90.5254 618.382 89.3632 619.373 88.4174C620.365 87.4715 621.561 86.7677 622.869 86.3609C624.178 85.9541 625.562 85.8553 626.915 86.0722C628.268 86.2891 629.552 86.8158 630.668 87.6113C631.792 88.4127 632.918 89.5387 634.29 89.3857C635.768 89.2209 637.085 87.5727 638.444 88.1767C639.949 88.8463 639.542 91.5444 641.068 92.1676C641.87 92.4956 642.819 91.9906 643.282 91.2573C643.687 90.4866 643.908 89.6326 643.927 88.7623C644.137 86.6238 644.327 84.3606 643.4 82.4223C643.01 81.7653 642.67 81.0798 642.383 80.3717C642.221 79.7104 642.156 79.029 642.19 78.3489C642.181 75.8354 641.998 73.2137 640.733 71.0417C639.33 68.6315 636.735 67.0903 634.028 66.4178C631.322 65.7453 628.486 65.8484 625.707 66.0837C621.113 66.4726 616.322 67.3064 612.703 70.1624C612.211 70.5219 611.787 70.9667 611.453 71.4758C611.135 72.0806 610.911 72.73 610.787 73.4019C610.004 76.5887 608.831 79.6667 607.294 82.5658C606.554 83.7947 605.95 85.1002 605.491 86.4592C605.107 87.8402 605.133 89.4141 605.937 90.6011C606.591 91.5674 607.637 92.0824 608.458 92.8725C609.272 93.6554 609.653 95.161 610.555 95.7538C611.342 96.2713 612.285 95.906 613.088 96.4545C614.119 97.1587 614.194 98.7028 615.408 99.267Z" fill="#2F2E41"/>
<path d="M655.818 145.006L656.096 145.376L656.487 145.128L656.487 145.128L656.488 145.127L656.494 145.123L656.516 145.109C656.537 145.096 656.567 145.077 656.608 145.052C656.688 145.002 656.808 144.928 656.963 144.834C657.273 144.646 657.724 144.378 658.283 144.059C659.403 143.422 660.957 142.582 662.696 141.775C664.436 140.967 666.351 140.195 668.195 139.688C670.048 139.179 671.783 138.949 673.182 139.182L678.169 140.014L660.558 155.721L637.496 153.758L628.699 135.186L629.906 132.772C630.052 132.816 630.237 132.873 630.455 132.941C631.065 133.13 631.941 133.407 633.008 133.759C635.14 134.462 638.03 135.461 641.058 136.648C644.088 137.835 647.248 139.206 649.926 140.649C652.622 142.103 654.761 143.596 655.818 145.006Z" fill="#F2F2F2" stroke="#0E56E1"/>
<path d="M660.281 149.438L660.283 149.442L660.283 149.442L660.284 149.443L660.284 149.443L660.284 149.443L660.509 149.894L660.959 149.663L677.718 141.056L660.398 165.868L640.848 174.836L640.806 174.855L640.768 174.882C639.862 175.523 638.799 175.538 637.909 175.364C637.469 175.277 637.088 175.147 636.816 175.038C636.681 174.983 636.575 174.935 636.503 174.901C636.468 174.884 636.441 174.87 636.424 174.862L636.406 174.852L636.403 174.851L636.403 174.851L636.403 174.851L636.403 174.851L636.403 174.851L636.394 174.846L636.385 174.841L607.336 160.562L627.288 132.822L654.475 147.652L654.704 147.777L654.938 147.66C655.862 147.198 656.641 147.096 657.284 147.176C657.932 147.257 658.478 147.527 658.926 147.863C659.376 148.201 659.719 148.599 659.95 148.917C660.065 149.075 660.15 149.21 660.206 149.305C660.234 149.352 660.255 149.388 660.267 149.412C660.271 149.418 660.274 149.423 660.276 149.428C660.278 149.432 660.28 149.435 660.281 149.438Z" fill="#0E56E1" stroke="white"/>
<path d="M658.725 182.811L662.736 172.282C662.736 172.282 671.76 160.75 666.747 155.235C661.733 149.72 656.218 171.279 656.218 171.279L658.725 182.811Z" fill="#A0616A"/>
<path d="M612.449 181.131L621.201 174.035C621.201 174.035 634.793 168.588 633.223 161.301C631.653 154.015 616.066 169.898 616.066 169.898L612.449 181.131Z" fill="#A0616A"/>
<path opacity="0.1" d="M590.793 130.416H590.291C590.291 130.416 582.52 121.141 581.016 133.675C579.512 146.21 574.499 187.825 587.534 189.329C600.569 190.833 609.844 183.062 609.844 183.062C609.844 183.062 619.369 168.522 615.86 168.522C614.162 168.522 609.544 167.759 605.332 168.02C600.838 168.299 596.801 169.565 597.059 168.271C597.561 165.764 604.83 133.926 590.793 130.416Z" fill="black"/>
<path d="M590.04 120.639L588.035 119.637C588.035 119.637 580.013 121.141 578.509 133.675C577.005 146.21 571.992 187.825 585.027 189.329C598.062 190.833 615.609 187.323 615.609 187.323C615.609 187.323 619.119 168.271 615.609 168.271C612.1 168.271 594.051 170.778 594.553 168.271C595.054 165.764 604.078 124.149 590.04 120.639Z" fill="white"/>
<path d="M651.456 177.045L656.984 168.571L660.48 182.56L651.456 186.572V177.045Z" fill="#2F2E41"/>
<path d="M537.887 56.2118C545.363 56.2118 551.423 50.1509 551.423 42.6745C551.423 35.198 545.363 29.1371 537.887 29.1371C530.411 29.1371 524.35 35.198 524.35 42.6745C524.35 50.1509 530.411 56.2118 537.887 56.2118Z" fill="#F2F2F2"/>
<path d="M553.93 143.452H521.844V175.541H553.93V143.452Z" fill="#F2F2F2"/>
<path d="M668.501 0L676.623 14.0673L684.744 28.1346H668.501H652.259L660.38 14.0673L668.501 0Z" fill="#F2F2F2"/>
<path d="M810 84.3471C809.806 90.3488 808.344 95.1593 805.616 98.7787C802.886 102.398 799.644 104.208 795.889 104.209C792.83 104.209 790.149 102.438 787.846 98.8949C785.542 95.3523 784.39 89.9029 784.391 82.5468C784.391 80.9207 784.429 79.3721 784.507 77.9008C784.584 76.4299 784.681 75.0361 784.797 73.7194L786.83 54.6127H773.415C771.092 78.7719 769.186 93.1455 767.695 97.7334C766.205 102.321 763.678 104.615 760.117 104.615C758.509 104.576 756.975 103.933 755.82 102.815C755.15 102.221 754.62 101.486 754.268 100.662C753.917 99.8389 753.752 98.9475 753.787 98.0528C753.787 96.2725 755.191 93.785 757.997 90.5902C760.804 87.396 762.362 84.4826 762.672 81.8499L766.156 54.6127H760.524C758.936 54.6222 757.373 55.0104 755.965 55.7451C754.669 56.3403 753.542 57.2483 752.684 58.3875L750.187 62.1043H748.154C750.051 56.2197 752.383 51.7963 755.152 48.8342C757.919 45.8723 761.104 44.3914 764.705 44.3914H809.071V54.6127H794.089C793.624 59.2587 793.266 63.9047 793.014 68.5506C792.762 73.1967 792.636 77.862 792.637 82.5468C792.637 85.7219 793.372 88.2965 794.844 90.2708C796.314 92.2454 798.153 93.2326 800.36 93.2326C801.715 93.2326 803.138 92.6808 804.629 91.5773C805.336 91.0808 805.929 90.4371 806.365 89.6903C806.801 88.9436 807.07 88.1115 807.155 87.2509C807.271 86.3997 807.358 85.7318 807.416 85.2473C807.474 84.7636 807.503 84.4636 807.503 84.3471L810 84.3471Z" fill="#6C63FF"/>
<path opacity="0.1" d="M810 84.3471C809.806 90.3488 808.344 95.1593 805.616 98.7787C802.886 102.398 799.644 104.208 795.889 104.209C792.83 104.209 790.149 102.438 787.846 98.8949C785.542 95.3523 784.39 89.9029 784.391 82.5468C784.391 80.9207 784.429 79.3721 784.507 77.9008C784.584 76.4299 784.681 75.0361 784.797 73.7194L786.83 54.6127H773.415C771.092 78.7719 769.186 93.1455 767.695 97.7334C766.205 102.321 763.678 104.615 760.117 104.615C758.509 104.576 756.975 103.933 755.82 102.815C755.15 102.221 754.62 101.486 754.268 100.662C753.917 99.8389 753.752 98.9475 753.787 98.0528C753.787 96.2725 755.191 93.785 757.997 90.5902C760.804 87.396 762.362 84.4826 762.672 81.8499L766.156 54.6127H760.524C758.936 54.6222 757.373 55.0104 755.965 55.7451C754.669 56.3403 753.542 57.2483 752.684 58.3875L750.187 62.1043H748.154C750.051 56.2197 752.383 51.7963 755.152 48.8342C757.919 45.8723 761.104 44.3914 764.705 44.3914H809.071V54.6127H794.089C793.624 59.2587 793.266 63.9047 793.014 68.5506C792.762 73.1967 792.636 77.862 792.637 82.5468C792.637 85.7219 793.372 88.2965 794.844 90.2708C796.314 92.2454 798.153 93.2326 800.36 93.2326C801.715 93.2326 803.138 92.6808 804.629 91.5773C805.336 91.0808 805.929 90.4371 806.365 89.6903C806.801 88.9436 807.07 88.1115 807.155 87.2509C807.271 86.3997 807.358 85.7318 807.416 85.2473C807.474 84.7636 807.503 84.4636 807.503 84.3471L810 84.3471Z" fill="black"/>
<path d="M810 82.5326C809.806 88.5343 808.344 93.3448 805.616 96.9642C802.886 100.584 799.644 102.394 795.889 102.394C792.83 102.394 790.149 100.623 787.846 97.0804C785.542 93.5378 784.39 88.0884 784.391 80.7323C784.391 79.1062 784.429 77.5575 784.507 76.0863C784.584 74.6153 784.681 73.2216 784.797 71.9049L786.83 52.7982H773.415C771.092 76.9574 769.186 91.331 767.695 95.9189C766.205 100.507 763.678 102.801 760.117 102.801C758.509 102.761 756.975 102.119 755.82 101.001C755.15 100.407 754.62 99.6715 754.268 98.8479C753.917 98.0244 753.752 97.1331 753.787 96.2383C753.787 94.4581 755.191 91.9705 757.997 88.7757C760.804 85.5815 762.362 82.6681 762.672 80.0355L766.156 52.7982H760.524C758.936 52.8077 757.373 53.1959 755.965 53.9306C754.669 54.5258 753.542 55.4338 752.684 56.573L750.187 60.2898H748.154C750.051 54.4052 752.383 49.9818 755.152 47.0197C757.919 44.0578 761.104 42.5769 764.705 42.577H809.071V52.7982H794.089C793.624 57.4442 793.266 62.0902 793.014 66.7362C792.762 71.3822 792.636 76.0476 792.637 80.7323C792.637 83.9074 793.372 86.4821 794.844 88.4563C796.314 90.4309 798.153 91.4182 800.36 91.4181C801.715 91.4181 803.138 90.8664 804.629 89.7629C805.336 89.2663 805.929 88.6226 806.365 87.8759C806.801 87.1291 807.07 86.297 807.155 85.4364C807.271 84.5852 807.358 83.9173 807.416 83.4328C807.474 82.9491 807.503 82.6491 807.503 82.5326H810Z" fill="#FAFAFA"/>
<defs>
<linearGradient id="paint0_linear" x1="379.338" y1="406.77" x2="379.338" y2="158.659" gradientUnits="userSpaceOnUse">
<stop stop-color="#808080" stop-opacity="0.25"/>
<stop offset="0.54" stop-color="#808080" stop-opacity="0.12"/>
<stop offset="1" stop-color="#808080" stop-opacity="0.1"/>
</linearGradient>
<clipPath id="clip0">
<rect width="470" height="374" fill="white" transform="translate(0 62)"/>
</clipPath>
</defs>
</svg>
