<svg width="896" height="1071" viewBox="0 0 896 1071" fill="none" xmlns="http://www.w3.org/2000/svg">
<g clip-path="url(#clip0)">
<path d="M28.0966 1050.89C28.0966 1050.89 7.98065 1049.68 10.3506 1063.76C10.3506 1063.76 9.8747 1066.24 12.1352 1067.37C12.1352 1067.37 12.1732 1066.33 14.2005 1066.68C14.9219 1066.8 15.6552 1066.84 16.3849 1066.79C17.3727 1066.72 18.3116 1066.33 19.0594 1065.68C19.0594 1065.68 24.713 1063.35 26.9164 1054.13C26.9164 1054.13 28.5439 1052.11 28.4773 1051.6L25.0842 1053.02C25.0842 1053.02 26.2406 1055.47 25.3316 1057.5C25.3316 1057.5 25.2174 1053.11 24.5655 1053.22C24.4322 1053.25 22.8047 1054.07 22.8047 1054.07C22.8047 1054.07 24.7987 1058.35 23.2806 1061.42C23.2806 1061.42 23.8516 1056.18 22.167 1054.38L19.7875 1055.77C19.7875 1055.77 22.1241 1060.17 20.5394 1063.76C20.5394 1063.76 20.9439 1058.25 19.2878 1056.11L17.1225 1057.8C17.1225 1057.8 19.3116 1062.13 17.9744 1065.11C17.9744 1065.11 17.803 1058.7 16.6514 1058.21C16.6514 1058.21 14.7478 1059.88 14.467 1060.59C14.467 1060.59 15.9709 1063.73 15.0381 1065.4C15.0381 1065.4 14.467 1061.12 14.0007 1061.12C14.0007 1061.12 12.0971 1063.95 11.9163 1065.87C11.9163 1065.87 11.9972 1062.98 13.5391 1060.83C12.4507 1061.03 11.4463 1061.55 10.6504 1062.32C10.6504 1062.32 10.9454 1060.32 14.0054 1060.15C14.0054 1060.15 15.5664 1058 15.9851 1057.87C15.9851 1057.87 12.9394 1057.62 11.093 1058.44C11.093 1058.44 12.7158 1056.54 16.5419 1057.41L18.6834 1055.66C18.6834 1055.66 14.6717 1055.12 12.9727 1055.72C12.9727 1055.72 14.9287 1054.05 19.2593 1055.27L21.5864 1053.88C21.5864 1053.88 18.1647 1053.15 16.1279 1053.41C16.1279 1053.41 18.2789 1052.25 22.2669 1053.5L23.9325 1052.76C23.9325 1052.76 21.4246 1052.28 20.6917 1052.19C19.9588 1052.09 19.9208 1051.91 19.9208 1051.91C21.5078 1051.64 23.1372 1051.82 24.6273 1052.43C24.6273 1052.43 28.1584 1051.12 28.0966 1050.89Z" fill="#6C63FF"/>
<path opacity="0.1" d="M14.2387 1071C22.1025 1071 28.4774 1069.92 28.4774 1068.6C28.4774 1067.27 22.1025 1066.19 14.2387 1066.19C6.37487 1066.19 0 1067.27 0 1068.6C0 1069.92 6.37487 1071 14.2387 1071Z" fill="#6C63FF"/>
<path d="M469.786 1018.93C469.786 1018.93 458.44 1018.25 459.792 1026.18C459.723 1026.58 459.783 1027 459.964 1027.37C460.145 1027.73 460.438 1028.03 460.801 1028.22C460.801 1028.22 460.801 1027.63 461.962 1027.83C462.369 1027.9 462.783 1027.92 463.195 1027.89C463.751 1027.85 464.281 1027.64 464.703 1027.27C464.703 1027.27 467.892 1025.96 469.134 1020.76C469.134 1020.76 470.047 1019.62 470.014 1019.33L468.111 1020.15C468.111 1020.15 468.763 1021.53 468.249 1022.68C468.249 1022.68 468.187 1020.2 467.82 1020.26C467.744 1020.26 466.821 1020.73 466.821 1020.73C466.821 1020.73 467.949 1023.11 467.102 1024.87C467.102 1024.87 467.421 1021.92 466.474 1020.9L465.122 1021.69C465.122 1021.69 466.44 1024.17 465.546 1026.2C465.546 1026.2 465.779 1023.09 464.841 1021.88L463.618 1022.83C463.618 1022.83 464.855 1025.27 464.094 1026.96C464.094 1026.96 463.994 1023.34 463.347 1023.07C462.884 1023.46 462.47 1023.9 462.114 1024.39C462.114 1024.39 462.961 1026.17 462.438 1027.11C462.438 1027.11 462.114 1024.7 461.848 1024.69C461.848 1024.69 460.787 1026.28 460.677 1027.37C460.726 1026.36 461.041 1025.38 461.591 1024.52C460.977 1024.64 460.411 1024.93 459.963 1025.37C459.963 1025.37 460.13 1024.24 461.867 1024.14C461.867 1024.14 462.747 1022.93 462.985 1022.86C462.985 1022.86 461.267 1022.71 460.225 1023.17C460.225 1023.17 461.144 1022.11 463.299 1022.59L464.503 1021.61C464.503 1021.61 462.243 1021.3 461.286 1021.64C461.286 1021.64 462.39 1020.69 464.827 1021.39L466.14 1020.6C465.131 1020.38 464.098 1020.3 463.066 1020.34C463.066 1020.34 464.275 1019.69 466.526 1020.4L467.478 1019.97C467.478 1019.97 466.05 1019.7 465.655 1019.65C465.26 1019.61 465.217 1019.5 465.217 1019.5C466.113 1019.35 467.032 1019.45 467.873 1019.79C467.873 1019.79 469.819 1019.06 469.786 1018.93Z" fill="#6C63FF"/>
<path opacity="0.1" d="M461.972 1030.27C466.406 1030.27 470 1029.66 470 1028.91C470 1028.16 466.406 1027.56 461.972 1027.56C457.538 1027.56 453.943 1028.16 453.943 1028.91C453.943 1029.66 457.538 1030.27 461.972 1030.27Z" fill="#6C63FF"/>
<path d="M446.458 1040.53C446.458 1040.53 432.761 1039.71 434.399 1049.29C434.315 1049.78 434.388 1050.28 434.607 1050.72C434.826 1051.17 435.179 1051.53 435.617 1051.76C435.617 1051.76 435.617 1051.05 437.045 1051.28C437.536 1051.37 438.036 1051.39 438.534 1051.35C439.206 1051.31 439.844 1051.04 440.352 1050.6C440.352 1050.6 444.202 1049.02 445.696 1042.74C445.696 1042.74 446.805 1041.37 446.762 1041.01L444.449 1042C444.449 1042 445.239 1043.66 444.621 1045.05C444.621 1045.05 444.545 1042.06 444.102 1042.13C444.012 1042.13 442.898 1042.71 442.898 1042.71C442.898 1042.71 444.259 1045.61 443.231 1047.71C443.231 1047.71 443.621 1044.14 442.474 1042.92L440.847 1043.87C440.847 1043.87 442.436 1046.87 441.361 1049.31C441.361 1049.31 441.637 1045.56 440.504 1044.08L439.034 1045.23C439.034 1045.23 440.523 1048.18 439.614 1050.21C439.614 1050.21 439.495 1045.84 438.71 1045.52C438.71 1045.52 437.42 1046.65 437.225 1047.12C437.225 1047.12 438.249 1049.26 437.616 1050.39C437.616 1050.39 437.225 1047.48 436.907 1047.47C436.907 1047.47 435.622 1049.39 435.479 1050.71C435.543 1049.49 435.925 1048.31 436.588 1047.28C435.846 1047.42 435.161 1047.78 434.617 1048.3C434.617 1048.3 434.817 1046.94 436.902 1046.82C436.902 1046.82 437.963 1045.36 438.249 1045.27C438.249 1045.27 436.174 1045.1 434.917 1045.65C434.917 1045.65 436.026 1044.37 438.629 1044.96L440.085 1043.77C440.085 1043.77 437.354 1043.39 436.197 1043.81C436.197 1043.81 437.53 1042.67 440.481 1043.5L442.065 1042.55C442.065 1042.55 439.738 1042.05 438.353 1042.23C438.353 1042.23 439.814 1041.44 442.532 1042.3L443.664 1041.79C443.664 1041.79 441.956 1041.45 441.461 1041.4C440.966 1041.35 440.933 1041.21 440.933 1041.21C442.013 1041.03 443.121 1041.15 444.135 1041.57C444.135 1041.57 446.496 1040.68 446.458 1040.53Z" fill="#6C63FF"/>
<path opacity="0.1" d="M437.021 1054.21C442.375 1054.21 446.715 1053.48 446.715 1052.58C446.715 1051.68 442.375 1050.95 437.021 1050.95C431.667 1050.95 427.327 1051.68 427.327 1052.58C427.327 1053.48 431.667 1054.21 437.021 1054.21Z" fill="#6C63FF"/>
<path opacity="0.1" d="M383.326 1048.88C407.593 1048.88 427.265 1045.82 427.265 1042.04C427.265 1038.26 407.593 1035.19 383.326 1035.19C359.059 1035.19 339.387 1038.26 339.387 1042.04C339.387 1045.82 359.059 1048.88 383.326 1048.88Z" fill="#6C63FF"/>
<path opacity="0.1" d="M244.285 1066.69C271.553 1066.69 293.658 1064.48 293.658 1061.75C293.658 1059.02 271.553 1056.8 244.285 1056.8C217.016 1056.8 194.911 1059.02 194.911 1061.75C194.911 1064.48 217.016 1066.69 244.285 1066.69Z" fill="#6C63FF"/>
<path opacity="0.1" d="M94.6976 1061.78C115.395 1061.78 132.174 1060.75 132.174 1059.47C132.174 1058.2 115.395 1057.16 94.6976 1057.16C74 1057.16 57.2212 1058.2 57.2212 1059.47C57.2212 1060.75 74 1061.78 94.6976 1061.78Z" fill="#6C63FF"/>
<path opacity="0.1" d="M161.237 713.268C175.138 700.919 196.962 698.387 216.821 699.37C279.206 702.462 335.518 732.524 384.23 766.528C401.867 778.834 419.227 792.101 430.672 809.053C453.991 843.555 447.062 891.357 414.663 919.785C403.637 929.456 390.274 936.884 376.554 943.444C352.16 955.133 325.838 964.514 298.156 967.193C278.411 969.093 258.423 967.549 238.798 964.889C183.956 957.461 130.128 941.045 85.0133 912.974C65.2257 900.624 46.5707 885.33 38.414 865.404C30.2572 845.479 35.4777 820.229 55.6841 808.435C64.0407 803.557 74.0344 801.353 83.814 799.287C98.2145 796.243 112.843 793.241 125.84 787.047C139.26 780.654 155.15 768.29 152.49 754.14C149.644 738.955 147.355 725.618 161.237 713.268Z" fill="white"/>
<path opacity="0.9" d="M276.426 883.088V792.395H288.8V765.321H200.141V792.395H212.514V883.088C195.427 889.565 180.717 901.075 170.336 916.09C159.954 931.106 154.393 948.916 154.389 967.16C154.389 1016.82 194.725 1057.07 244.48 1057.07C294.234 1057.07 334.566 1016.82 334.566 967.16C334.562 948.915 328.998 931.102 318.614 916.087C308.23 901.071 293.517 889.562 276.426 883.088Z" fill="#96B7FE"/>
<path opacity="0.1" d="M276.426 792.115H212.495V793.336H276.426V792.115Z" fill="black"/>
<path d="M194.073 964.747C194.073 964.747 248.325 963.797 275.451 950.246C302.577 936.694 318.076 948.792 316.62 957.014C315.164 965.236 307.421 981.181 276.422 983.138C245.422 985.095 194.073 964.747 194.073 964.747Z" fill="#003AD9"/>
<path opacity="0.1" d="M194.073 964.747C194.073 964.747 248.325 963.797 275.451 950.246C302.577 936.694 318.076 948.792 316.62 957.014C315.164 965.236 307.421 981.181 276.422 983.138C245.422 985.095 194.073 964.747 194.073 964.747Z" fill="black"/>
<path d="M170.84 956.055C170.84 956.055 165.044 1036.3 241.068 1037.75C317.091 1039.2 316.625 957.005 316.625 957.005C316.625 957.005 288.547 987.456 222.18 962.32C222.18 962.339 187.792 953.152 170.84 956.055Z" fill="white"/>
<path opacity="0.1" d="M316.377 957.294C314.859 975.781 305.013 1033.65 241.096 1032.43C178.44 1031.24 171.345 976.574 170.788 957.342C170.441 967.663 170.75 1036.4 241.082 1037.75C317.125 1039.17 316.639 957 316.639 957C316.639 957 316.544 957.119 316.377 957.294Z" fill="black"/>
<path opacity="0.3" d="M241.529 931.275C246.978 931.275 251.395 926.867 251.395 921.429C251.395 915.991 246.978 911.582 241.529 911.582C236.081 911.582 231.664 915.991 231.664 921.429C231.664 926.867 236.081 931.275 241.529 931.275Z" fill="#003AD9"/>
<path opacity="0.3" d="M247.164 888.132C250.536 888.132 253.269 885.404 253.269 882.038C253.269 878.673 250.536 875.944 247.164 875.944C243.792 875.944 241.058 878.673 241.058 882.038C241.058 885.404 243.792 888.132 247.164 888.132Z" fill="#003AD9"/>
<path opacity="0.3" d="M233.539 852.96C236.911 852.96 239.645 850.232 239.645 846.866C239.645 843.5 236.911 840.772 233.539 840.772C230.167 840.772 227.433 843.5 227.433 846.866C227.433 850.232 230.167 852.96 233.539 852.96Z" fill="#003AD9"/>
<path opacity="0.2" d="M181.224 929.023C180.701 933.175 180.806 938.371 184.522 940.309C181.405 938.685 194.183 920.265 192.37 916.503C188.491 908.476 181.7 925.167 181.224 929.023Z" fill="white"/>
<path opacity="0.3" d="M228.604 747.224C234.052 747.224 238.469 742.816 238.469 737.378C238.469 731.94 234.052 727.532 228.604 727.532C223.156 727.532 218.739 731.94 218.739 737.378C218.739 742.816 223.156 747.224 228.604 747.224Z" fill="#6C63FF"/>
<path opacity="0.3" d="M258.2 727.817C262.25 727.817 265.533 724.54 265.533 720.497C265.533 716.455 262.25 713.178 258.2 713.178C254.15 713.178 250.866 716.455 250.866 720.497C250.866 724.54 254.15 727.817 258.2 727.817Z" fill="#6C63FF"/>
<path opacity="0.3" d="M237.061 704.609C239.166 704.609 240.873 702.906 240.873 700.805C240.873 698.703 239.166 697 237.061 697C234.955 697 233.249 698.703 233.249 700.805C233.249 702.906 234.955 704.609 237.061 704.609Z" fill="#6C63FF"/>
<path opacity="0.9" d="M135.063 822.005H55.3367V845.607H67.4862V1029.74C67.4381 1033.4 68.1195 1037.04 69.4909 1040.44C70.8623 1043.84 72.8964 1046.93 75.475 1049.54C78.0537 1052.14 81.1256 1054.21 84.5124 1055.63C87.8992 1057.04 91.5336 1057.77 95.2045 1057.77C98.8754 1057.77 102.51 1057.04 105.897 1055.63C109.283 1054.21 112.355 1052.14 114.934 1049.54C117.513 1046.93 119.547 1043.84 120.918 1040.44C122.289 1037.04 122.971 1033.4 122.923 1029.74V845.607H135.063V822.005Z" fill="#96B7FE"/>
<path d="M85.9556 887.325C85.9556 887.325 105.686 880.29 111.178 885.292C111.178 885.292 103.188 897.014 95.8303 896.544C88.473 896.074 85.9556 887.325 85.9556 887.325Z" fill="#0034C4"/>
<path opacity="0.1" d="M85.9556 887.325C85.9556 887.325 105.686 880.29 111.178 885.292C111.178 885.292 103.188 897.014 95.8303 896.544C88.473 896.074 85.9556 887.325 85.9556 887.325Z" fill="black"/>
<path d="M111.168 885.311V1018.95C111.168 1021.17 110.731 1023.36 109.881 1025.41C109.031 1027.46 107.785 1029.32 106.215 1030.89C104.644 1032.46 102.78 1033.7 100.728 1034.55C98.6755 1035.4 96.4762 1035.83 94.2551 1035.83C89.7695 1035.83 85.4675 1034.05 82.2957 1030.89C79.1238 1027.72 77.3419 1023.43 77.3419 1018.95V885.311C77.3419 885.311 85.4844 883.121 93.1558 887.814C100.827 892.507 111.168 885.311 111.168 885.311Z" fill="white"/>
<path opacity="0.1" d="M122.913 845.46H67.4767V846.548H122.913V845.46Z" fill="black"/>
<path opacity="0.1" d="M94.2551 1027.71C92.0336 1027.71 89.8339 1027.27 87.7816 1026.42C85.7293 1025.57 83.8646 1024.33 82.294 1022.76C80.7234 1021.19 79.4777 1019.33 78.628 1017.28C77.7783 1015.23 77.3413 1013.04 77.3419 1010.82V1019.26C77.3419 1023.74 79.1238 1028.03 82.2957 1031.2C85.4675 1034.36 89.7695 1036.14 94.2551 1036.14C98.7408 1036.14 103.043 1034.36 106.215 1031.2C109.386 1028.03 111.168 1023.74 111.168 1019.26V1010.82C111.169 1013.04 110.732 1015.23 109.882 1017.28C109.033 1019.33 107.787 1021.19 106.216 1022.76C104.646 1024.33 102.781 1025.57 100.729 1026.42C98.6763 1027.27 96.4766 1027.71 94.2551 1027.71Z" fill="black"/>
<path opacity="0.3" d="M94.2599 872.187C96.1628 872.187 97.7054 870.648 97.7054 868.748C97.7054 866.849 96.1628 865.31 94.2599 865.31C92.357 865.31 90.8145 866.849 90.8145 868.748C90.8145 870.648 92.357 872.187 94.2599 872.187Z" fill="#6C63FF"/>
<path opacity="0.3" d="M105.534 858.745C106.745 858.745 107.728 857.765 107.728 856.556C107.728 855.346 106.745 854.366 105.534 854.366C104.322 854.366 103.34 855.346 103.34 856.556C103.34 857.765 104.322 858.745 105.534 858.745Z" fill="#6C63FF"/>
<path opacity="0.3" d="M90.1862 854.371C91.3978 854.371 92.38 853.39 92.38 852.181C92.38 850.972 91.3978 849.991 90.1862 849.991C88.9745 849.991 87.9923 850.972 87.9923 852.181C87.9923 853.39 88.9745 854.371 90.1862 854.371Z" fill="#6C63FF"/>
<path opacity="0.2" d="M71.7693 912.613C71.2458 916.764 71.3505 921.96 75.0672 923.898C71.9453 922.274 84.7278 903.859 82.9146 900.092C79.0266 892.075 72.2452 908.761 71.7693 912.613Z" fill="white"/>
<path opacity="0.3" d="M101.408 807.238C106.031 807.238 109.779 803.498 109.779 798.883C109.779 794.269 106.031 790.529 101.408 790.529C96.7845 790.529 93.0367 794.269 93.0367 798.883C93.0367 803.498 96.7845 807.238 101.408 807.238Z" fill="#6C63FF"/>
<path opacity="0.3" d="M76.295 790.771C79.7328 790.771 82.5196 787.989 82.5196 784.558C82.5196 781.127 79.7328 778.345 76.295 778.345C72.8572 778.345 70.0703 781.127 70.0703 784.558C70.0703 787.989 72.8572 790.771 76.295 790.771Z" fill="#6C63FF"/>
<path opacity="0.3" d="M94.2313 771.078C96.0185 771.078 97.4674 769.632 97.4674 767.848C97.4674 766.064 96.0185 764.618 94.2313 764.618C92.4441 764.618 90.9952 766.064 90.9952 767.848C90.9952 769.632 92.4441 771.078 94.2313 771.078Z" fill="#6C63FF"/>
<path d="M426.332 911.368C426.332 911.368 419.027 875.108 421.821 870.596C421.821 870.596 421.921 866.402 421.754 861.058C421.754 860.854 421.754 860.65 421.754 860.441C422.243 860.774 422.755 861.072 423.286 861.334C425.861 862.659 428.82 863.041 431.648 862.412L429.425 859.952C428.897 859.363 428.34 858.731 428.226 857.952C428.196 857.203 428.36 856.458 428.702 855.791C430.801 850.495 430.929 843.831 426.865 839.789C423.448 836.388 422.611 831.999 418.918 828.897C416.205 826.622 414.716 823.288 413.307 820.072C412.117 817.346 410.927 814.601 410.237 811.713C409.704 809.456 409.495 807.124 408.762 804.92C408.029 802.716 406.668 800.574 404.531 799.591C403.739 799.315 402.97 798.975 402.233 798.575C401.319 797.962 400.772 796.964 400.115 796.095C396.784 791.673 385.553 794.276 380.242 796.071C378.8 796.523 377.464 797.261 376.316 798.242L376.363 798.161L376.497 797.967C375.917 798.436 375.416 798.994 375.012 799.62C374.236 800.845 373.913 802.284 373.27 803.576C372.49 805.144 368.159 809.518 370.02 811.28C370.148 811.398 370.294 811.495 370.453 811.565C371.148 811.848 371.91 811.924 372.647 811.784C372.618 811.846 372.59 811.907 372.566 811.969C371.934 813.524 371.61 815.188 371.614 816.866C371.645 820.38 373.074 823.738 375.585 826.2C378.096 828.663 381.485 830.03 385.006 829.999C386.397 830.002 387.781 829.79 389.108 829.372C389.141 829.539 389.17 829.705 389.198 829.871C389.198 829.942 389.198 830.009 389.232 830.075L388.998 830.403L388.96 830.341L382.017 840.031C380.956 840.772 374.841 845.189 374.512 848.5C374.151 852.124 373.789 856.37 373.789 856.37L373.741 857.278C373.438 857.53 373.084 857.714 372.703 857.818C372.322 857.921 371.923 857.941 371.533 857.876C369.368 857.52 369.368 865.837 369.368 865.837C369.368 865.837 367.94 867.162 366.936 866.012C365.932 864.863 363.329 868.753 363.329 868.753L346.915 869.461H346.539L345.654 866.725C345.557 866.442 345.354 866.208 345.088 866.072C344.822 865.935 344.513 865.907 344.226 865.993C344.157 866.012 344.09 866.04 344.027 866.074L343.969 866.112C343.929 866.135 343.891 866.162 343.855 866.193C343.833 866.208 343.812 866.225 343.793 866.245C343.761 866.273 343.731 866.303 343.703 866.335C343.686 866.355 343.67 866.376 343.655 866.397L343.627 866.426C343.525 866.566 343.457 866.729 343.429 866.901C343.401 867.072 343.413 867.248 343.465 867.414L344.226 869.76C341.062 870.397 337.821 872.187 340.462 877.127L327.08 874.662L331.411 878.286L353.778 882.893C353.483 883.425 353.678 884.19 354.601 885.268C358.575 889.932 365.837 891.196 368.754 891.528C369.52 893.244 370.478 894.867 371.609 896.368L371.352 901.014C371.352 901.014 363.966 936.443 362.61 938.243C363.28 937.465 363.893 936.64 364.442 935.773C362.296 943.054 359.298 953.019 358.513 954.511C357.247 956.886 356.076 966.537 357.518 967.16C357.97 967.35 359.222 967.259 361.025 967.122V967.92L360.945 998.2C360.945 998.2 361.306 1016.78 360.312 1018.54C359.317 1020.31 359.05 1024.02 359.05 1024.02C359.05 1024.02 355.063 1031.35 351.912 1034.3L351.841 1034.36L351.741 1033.67C351.741 1033.67 347.934 1038.44 339.567 1038.18C339.567 1038.18 334.518 1041.45 342.004 1041.63C349.49 1041.8 359.046 1041.36 359.046 1041.36C359.046 1041.36 365.708 1031.19 371.309 1032.52V1040.21H373.023V1032.45C373.817 1031.93 374.496 1031.25 375.02 1030.46C375.543 1029.66 375.9 1028.77 376.068 1027.84C376.216 1026.88 376.11 1025.89 375.76 1024.99C375.41 1024.08 374.829 1023.28 374.074 1022.67C373.735 1022.36 373.462 1021.99 373.274 1021.57C373.086 1021.15 372.986 1020.7 372.98 1020.24L372.918 1020.3C372.918 1020.14 372.88 1019.99 372.856 1019.82C372.38 1015.84 371.757 1007.65 373.927 1001.58C376.901 993.265 377.805 981.685 375.64 974.783C374.943 972.58 374.371 970.339 373.927 968.072C373.875 967.782 373.822 967.511 373.779 967.255C375.262 967.456 376.729 967.756 378.172 968.152C383.197 969.53 394.176 969.786 403.551 969.715C403.575 969.972 403.603 970.238 403.632 970.508C403.804 972.375 404.158 974.22 404.688 976.018C405.859 979.561 406.402 995.122 406.402 995.122C406.402 995.122 407.92 1007.92 407.092 1013.14C406.616 1016.04 406.216 1018.94 405.954 1021.86V1021.92C405.954 1021.92 403.47 1028.99 401.671 1032.84C401.624 1032.94 401.581 1033.04 401.533 1033.13C401.047 1033.18 400.567 1033.28 400.106 1033.44C400.106 1033.44 397.674 1038.31 395.237 1039.11C392.801 1039.9 393.614 1042.55 399.116 1041.58C404.617 1040.61 412.917 1039.81 412.917 1039.81L413.278 1034.86L414.968 1032.75L414.539 1037.69L416.343 1037.34L416.105 1031.32L418.87 1027.87C418.87 1027.87 422.201 1024.91 417.247 1019.08V1019.2C417.195 1019.11 417.143 1019.03 417.085 1018.95V1018.92C416.267 1017.65 415.61 1015.28 416.809 1011.07C418.975 1003.47 420.236 996.566 420.236 996.566C420.236 996.566 425.076 978.084 419.256 969.335H419.517C418.92 968.104 418.497 966.797 418.261 965.45C418.232 965.288 418.209 965.122 418.18 964.975C422.463 964.728 426.713 963.949 430.153 962.277C430.115 962.225 428.045 918.355 426.332 911.368ZM371.685 880.78V880.865L370.795 880.908L371.685 880.78ZM368.654 881.198C368.508 881.229 368.371 881.294 368.254 881.388C367.875 881.925 367.636 882.549 367.559 883.202L366.179 882.889C366.179 882.889 365.228 882.684 363.8 882.456L363.138 881.796C364.975 881.625 366.86 881.421 368.654 881.198Z" fill="url(#paint0_linear)"/>
<path d="M414.316 1031.37L413.788 1037.63L415.553 1037.27L415.287 1030.49L414.316 1031.37Z" fill="#1D2366"/>
<path d="M374.051 1001.67C371.923 1007.71 372.533 1015.88 373.008 1019.84C373.185 1021.31 373.346 1022.22 373.346 1022.22C373.346 1022.22 370.167 1029.45 369.901 1029.71C369.634 1029.98 360.535 1035.52 360.535 1035.52L354.177 1039.22C354.177 1039.22 347.729 1036.4 350.846 1035.42C351.477 1035.17 352.046 1034.78 352.512 1034.28C355.596 1031.35 359.503 1024.05 359.503 1024.05C359.503 1024.05 359.764 1020.35 360.735 1018.59C361.706 1016.82 361.354 998.314 361.354 998.314L361.435 968.133V964.201L373.532 964.291C373.61 965.627 373.785 966.955 374.055 968.266C374.491 970.525 375.054 972.758 375.74 974.954C377.844 981.846 376.963 993.379 374.051 1001.67Z" fill="#FFB0B1"/>
<path opacity="0.1" d="M373.342 1022.22C373.342 1022.22 370.163 1029.45 369.896 1029.71C369.63 1029.98 360.535 1035.52 360.535 1035.52L354.177 1039.22C354.177 1039.22 347.729 1036.4 350.846 1035.42C351.477 1035.17 352.046 1034.78 352.512 1034.28L352.788 1036.21L354.91 1036.12L373.008 1019.84C373.18 1021.31 373.342 1022.22 373.342 1022.22Z" fill="black"/>
<path d="M373.123 1020.26L354.887 1036.66L352.764 1036.74L352.326 1033.66C352.326 1033.66 348.614 1038.41 340.401 1038.16C340.401 1038.16 335.456 1041.42 342.78 1041.59C350.104 1041.77 359.474 1041.33 359.474 1041.33C359.474 1041.33 366.008 1031.19 371.481 1032.52V1040.18H373.161V1032.43C373.942 1031.9 374.609 1031.22 375.121 1030.43C375.633 1029.65 375.98 1028.76 376.14 1027.83C376.286 1026.88 376.184 1025.9 375.842 1025C375.5 1024.1 374.931 1023.3 374.189 1022.68C373.856 1022.37 373.589 1021.99 373.406 1021.58C373.223 1021.16 373.126 1020.72 373.123 1020.26Z" fill="#1D2366"/>
<path d="M415.996 1011.1C414.82 1015.29 415.463 1017.65 416.262 1018.92V1018.95C417.302 1020.52 418.025 1022.27 418.389 1024.12L418.466 1024.52L410.166 1036.59L405.664 1038.35C405.664 1038.35 398.421 1035.89 399.744 1035.18C400.077 1035.01 400.596 1034.09 401.172 1032.81C402.947 1029.01 405.383 1021.95 405.383 1021.95V1021.89C405.636 1018.98 406.045 1016.08 406.497 1013.19C407.306 1008 405.821 995.241 405.821 995.241C405.821 995.241 405.293 979.732 404.141 976.203C403.623 974.41 403.278 972.571 403.109 970.713C402.871 968.494 402.818 966.685 402.818 966.685C402.818 966.685 407.577 960.073 416.329 967.212C417.025 967.785 417.638 968.452 418.151 969.193C424.191 977.742 419.332 996.651 419.332 996.651C419.332 996.651 418.113 1003.52 415.996 1011.1Z" fill="#FFB0B1"/>
<path opacity="0.1" d="M418.466 1024.49L410.166 1036.57L405.664 1038.33C405.664 1038.33 398.421 1035.87 399.744 1035.16C400.077 1034.98 400.596 1034.07 401.172 1032.78C404.236 1032.78 405.826 1035.67 405.826 1035.67L409.709 1035.06C409.709 1035.06 414.835 1025.01 415.981 1024.39C417.128 1023.78 416.157 1019.81 416.157 1019.81V1018.79L416.248 1018.9V1018.93C417.294 1020.51 418.022 1022.27 418.389 1024.12L418.466 1024.49Z" fill="black"/>
<path d="M406.102 1035.95C406.102 1035.95 403.894 1031.9 399.658 1033.4C399.658 1033.4 397.279 1038.25 394.9 1039.04C392.52 1039.83 393.31 1042.47 398.707 1041.5C404.103 1040.53 412.217 1039.74 412.217 1039.74L412.569 1034.81L418.042 1027.84C418.042 1027.84 421.311 1024.89 416.453 1019.08V1020.09C416.453 1020.09 417.404 1024.05 416.277 1024.67C415.149 1025.29 410.009 1035.33 410.009 1035.33L406.102 1035.95Z" fill="#1D2366"/>
<path opacity="0.1" d="M373.518 964.296C373.596 965.632 373.771 966.96 374.041 968.271C369.059 967.54 364.438 967.905 361.411 968.138V964.205L373.518 964.296Z" fill="black"/>
<path opacity="0.1" d="M418.642 970.29C418.642 970.29 411.56 970.632 403.128 970.703C402.89 968.485 402.837 966.675 402.837 966.675C402.837 966.675 407.596 960.063 416.348 967.202C417.044 967.776 417.658 968.442 418.171 969.183C418.308 969.56 418.466 969.929 418.642 970.29Z" fill="black"/>
<path d="M418.642 969.497C418.642 969.497 387.647 970.993 378.191 968.352C368.735 965.711 359.384 967.996 357.97 967.378C356.557 966.761 357.709 957.157 358.922 954.777C360.136 952.397 366.96 928.335 366.96 928.335L373.494 894.312L380.385 892.412L380.861 892.279L392.858 888.954L401.657 886.532C401.657 886.532 419.141 954.663 417.638 959.679C417.093 961.603 417.006 963.628 417.385 965.592C417.621 966.946 418.044 968.26 418.642 969.497Z" fill="#1D2366"/>
<path d="M350.737 871.042C350.737 871.042 344.55 877.654 349.233 881.354C353.916 885.054 357.004 881.711 357.004 881.711L350.737 871.042Z" fill="#C7DAF5"/>
<path opacity="0.1" d="M350.737 871.042C350.737 871.042 344.55 877.654 349.233 881.354C353.916 885.054 357.004 881.711 357.004 881.711L350.737 871.042Z" fill="black"/>
<path d="M400.762 827.506C400.762 827.506 400.039 828.19 398.945 829.211C397.388 830.66 395.085 832.783 393.039 834.564C390.183 837.024 387.875 838.839 388.708 837.286C389.541 835.732 389.384 833.063 388.97 830.55L388.884 830.052C388.539 828.206 388.081 826.384 387.514 824.594C387.514 824.594 392.087 818.695 394.619 816.367C395.57 815.498 396.222 815.128 396.256 815.736C396.303 816.562 396.927 818.367 397.683 820.324C397.712 820.381 397.736 820.443 397.76 820.5C398.274 821.816 398.849 823.188 399.359 824.361C400.134 826.162 400.762 827.506 400.762 827.506Z" fill="#FFB0B1"/>
<path opacity="0.1" d="M397.755 820.5C397.325 822.807 396.282 824.958 394.735 826.725C393.188 828.493 391.194 829.814 388.96 830.55C388.61 828.534 388.124 826.544 387.504 824.594C387.504 824.594 396.113 813.489 396.246 815.736C396.327 816.591 396.965 818.481 397.755 820.5Z" fill="black"/>
<path opacity="0.1" d="M388.113 833.519L389.227 831.956C389.227 831.956 389.965 836.45 392.682 834.469C395.399 832.488 395.537 849.383 395.537 849.383L392.615 892.882L371.552 891.623L372.147 870.605L374.527 860.028L380.423 844.624L383.954 839.537L388.113 833.519Z" fill="black"/>
<path d="M395.528 849.649L392.891 888.978L392.615 893.143L380.87 892.445L380.394 892.417L371.538 891.889L372.133 870.867L374.512 860.294L380.409 844.89L383.954 839.798L388.128 833.785L389.241 832.218C389.241 832.218 389.979 836.716 392.696 834.73L392.749 834.692C395.399 832.992 395.528 849.649 395.528 849.649Z" fill="#1D2366"/>
<path d="M374.841 856.589C374.841 856.589 373.784 858.793 371.662 858.441C369.539 858.09 369.544 866.373 369.544 866.373C369.544 866.373 368.116 867.694 367.164 866.549C366.213 865.405 363.633 869.28 363.633 869.28L347.562 869.988C347.562 869.988 354.701 873.246 353.302 883.121C353.302 883.121 377.572 881.62 378.381 879.321C379.19 877.023 374.841 856.589 374.841 856.589Z" fill="white"/>
<path opacity="0.03" d="M374.841 856.589C374.841 856.589 373.784 858.793 371.662 858.441C369.539 858.09 369.544 866.373 369.544 866.373C369.544 866.373 368.116 867.694 367.164 866.549C366.213 865.405 363.633 869.28 363.633 869.28L347.562 869.988C347.562 869.988 354.701 873.246 353.302 883.121C353.302 883.121 377.572 881.62 378.381 879.321C379.19 877.023 374.841 856.589 374.841 856.589Z" fill="black"/>
<path d="M328.127 875.184L332.367 878.799L367.25 886.114L362.92 881.711L328.127 875.184Z" fill="white"/>
<path d="M388.175 834.906C387.599 835.77 385.943 840.311 384.554 844.258C383.402 847.545 382.436 850.433 382.436 850.433C382.436 850.433 380.185 865.067 379.038 867.708C377.891 870.349 378.51 880.675 378.51 880.675L374.227 906.148C374.227 906.148 372.285 919.282 369.287 927.123C366.346 934.823 363.015 938.447 362.924 938.556C364.252 936.766 371.49 901.456 371.49 901.456L373.87 856.94C373.87 856.94 374.222 852.713 374.579 849.098C374.936 845.484 382.084 840.549 382.084 840.549L388.994 830.74C389.703 831.705 389.236 833.32 388.175 834.906Z" fill="white"/>
<path d="M370.153 892.108C370.153 892.108 359.998 891.671 355.053 885.762C350.109 879.853 366.446 883.387 366.446 883.387L370.681 884.337L370.153 892.108Z" fill="#FFB0B1"/>
<path opacity="0.1" d="M417.671 959.712C417.126 961.637 417.04 963.662 417.419 965.626C406.321 966.414 394.447 963.412 394.447 963.412C392.239 965.44 386.41 968.437 386.41 968.437L383.231 929.123C381.203 923.832 380.409 896.069 380.409 896.069C380.409 896.069 380.59 894.616 380.885 892.44C380.885 892.388 380.885 892.331 380.908 892.279C381.703 886.199 383.288 874.785 384.04 873.242C385.101 871.128 380.775 865.49 380.775 865.49L382.741 848.733L382.979 846.714C387.133 844.862 390.312 838.958 390.312 838.958L392.749 834.683C395.409 832.982 395.537 849.64 395.537 849.64L392.901 888.968L401.7 886.546C401.7 886.546 419.17 954.687 417.671 959.712Z" fill="black"/>
<path d="M429.064 962.443C416.967 968.437 394.976 962.885 394.976 962.885C392.768 964.913 386.938 967.91 386.938 967.91L383.759 928.596C381.732 923.309 380.937 895.547 380.937 895.547C380.937 895.547 383.497 874.833 384.554 872.719C384.863 872.102 384.716 871.185 384.349 870.197C382.544 865.488 381.88 860.42 382.412 855.406L383.259 848.21L383.497 846.192C387.647 844.339 390.826 838.43 390.826 838.43L393.039 834.564L397.113 827.439L399.04 824.067L399.364 824.361L401.867 826.622C401.867 826.622 402.928 827.496 404.517 828.84C407.982 831.752 413.969 836.882 417.052 840.017C419.77 842.786 420.626 853.535 420.86 861.628C421.026 866.953 420.926 871.128 420.926 871.128C418.185 875.621 425.338 911.763 425.338 911.763C427.032 918.726 429.064 962.443 429.064 962.443Z" fill="white"/>
<path opacity="0.03" d="M405.845 838.345C405.845 838.345 397.541 854.124 398.516 860.113C399.492 866.103 402.224 872.895 400.896 874.481C400.442 875.082 399.854 875.57 399.18 875.906C398.505 876.242 397.762 876.418 397.008 876.419C395.685 876.51 392.149 878.975 392.149 879.241C392.149 879.507 388.884 879.507 385.962 880.742C383.04 881.977 378.719 882.68 378.719 882.68C378.719 882.68 370.329 882.414 369.535 883.207C368.74 884 367.945 888.759 369.625 892.55C371.305 896.34 373.156 899.161 374.569 899.674C375.983 900.187 384.901 897.209 392.139 896.501C399.378 895.794 407.273 890.084 407.273 890.084C407.273 890.084 415.924 886.997 417.428 881.796C418.932 876.595 415.572 848.039 415.572 848.039C415.572 848.039 412.983 834.73 405.845 838.345Z" fill="black"/>
<path opacity="0.03" d="M404.779 837.024C404.779 837.024 396.479 852.799 397.45 858.793C398.421 864.787 401.158 871.575 399.83 873.161C399.376 873.762 398.788 874.249 398.114 874.585C397.439 874.922 396.696 875.097 395.942 875.099C394.619 875.189 391.088 877.654 391.088 877.92C391.088 878.186 387.818 878.181 384.901 879.416C381.984 880.651 377.658 881.354 377.658 881.354C377.658 881.354 369.268 881.093 368.473 881.886C367.679 882.68 366.884 887.439 368.564 891.229C370.244 895.02 372.095 897.841 373.508 898.354C374.922 898.867 383.84 895.884 391.083 895.181C398.326 894.478 406.192 888.75 406.192 888.75C406.192 888.75 414.844 885.667 416.348 880.466C417.852 875.265 414.492 846.709 414.492 846.709C414.492 846.709 411.932 833.41 404.779 837.024Z" fill="black"/>
<path d="M405.574 837.552C405.574 837.552 397.279 853.33 398.231 859.301C399.183 865.271 401.938 872.083 400.61 873.669C400.157 874.271 399.57 874.759 398.895 875.095C398.22 875.431 397.476 875.607 396.722 875.607C395.399 875.697 391.868 878.162 391.868 878.428C391.868 878.694 388.599 878.694 385.682 879.929C382.764 881.164 378.438 881.867 378.438 881.867C378.438 881.867 370.049 881.601 369.254 882.395C368.459 883.188 367.664 887.947 369.344 891.737C371.024 895.528 372.875 898.349 374.289 898.862C375.702 899.375 384.62 896.397 391.863 895.689C399.106 894.982 406.963 889.258 406.963 889.258C406.963 889.258 415.615 886.171 417.119 880.97C418.623 875.769 415.263 847.213 415.263 847.213C415.263 847.213 412.727 833.937 405.574 837.552Z" fill="white"/>
<path opacity="0.1" d="M405.398 879.858C405.398 879.858 398.773 878.538 401.072 880.742C403.37 882.946 403.366 884.883 406.192 884.793C409.019 884.703 405.398 879.858 405.398 879.858Z" fill="black"/>
<path opacity="0.1" d="M416.615 927.366C416.615 927.366 413.612 929.394 419.351 934.063C425.09 938.732 416.615 927.366 416.615 927.366Z" fill="black"/>
<path opacity="0.1" d="M410.87 944.023C410.87 944.289 409.814 953.718 413.788 956.097C417.761 958.477 410.87 944.023 410.87 944.023Z" fill="black"/>
<path d="M347.82 869.979C344.622 870.088 337.697 871.066 341.286 877.745C344.46 883.653 349.79 879.706 352.774 876.704C352.046 873.912 350.272 871.505 347.82 869.979Z" fill="#FFB0B1"/>
<path d="M352.826 876.652C352.874 876.61 352.917 876.562 352.959 876.519C352.917 876.562 352.874 876.61 352.826 876.652Z" fill="#FFB0B1"/>
<path opacity="0.1" d="M404.517 829.102C401.12 831.42 398.269 833.377 397.717 833.785C396.189 834.906 393.277 841.518 391.421 844.89C389.927 847.607 385.087 848.305 383.259 848.476L383.478 846.476C387.628 844.629 390.807 838.72 390.807 838.72L399.021 824.357L401.848 826.912C401.848 826.912 402.928 827.762 404.517 829.102Z" fill="black"/>
<path d="M404.517 828.84C401.12 831.154 398.269 833.115 397.717 833.519C396.189 834.645 393.277 841.252 391.421 844.624C389.927 847.341 385.087 848.039 383.259 848.21L383.497 846.192C387.647 844.339 390.826 838.43 390.826 838.43L399.04 824.067L401.867 826.622C401.867 826.622 402.928 827.477 404.517 828.84Z" fill="#DCE7FF"/>
<path d="M397.979 817.588C397.982 818.508 397.884 819.425 397.688 820.324C397.334 822.004 396.649 823.596 395.671 825.007C393.893 827.588 391.248 829.447 388.214 830.247C385.181 831.047 381.961 830.735 379.138 829.368C376.316 828.002 374.077 825.67 372.829 822.797C371.582 819.924 371.407 816.7 372.337 813.709C373.268 810.718 375.241 808.16 377.9 806.497C380.559 804.835 383.727 804.179 386.829 804.648C389.931 805.117 392.761 806.681 394.807 809.055C396.853 811.429 397.978 814.457 397.979 817.588Z" fill="#FFB0B1"/>
<path opacity="0.1" d="M420.874 861.628C419.078 860.525 417.615 858.955 416.643 857.088C415.905 855.629 415.415 853.953 414.149 852.912C413.017 851.991 411.484 851.763 410.08 851.35C405.431 849.977 401.514 845.735 401.381 840.9C401.314 838.625 402.024 836.35 401.7 834.098C401.517 832.821 401.008 831.612 400.22 830.588C399.835 830.095 399.408 829.636 398.944 829.216C398.326 828.631 397.674 828.066 397.112 827.444C396.748 827.062 396.429 826.64 396.161 826.185C395.951 825.813 395.78 825.42 395.651 825.012C394.785 822.314 395.57 819.103 394.6 816.372C394.6 816.325 394.566 816.272 394.547 816.225C394.176 815.251 393.429 814.282 392.396 814.206C391.364 814.13 390.464 814.99 389.474 815.379C387.399 816.182 385.158 814.814 383.43 813.418C381.703 812.021 379.752 810.425 377.548 810.739C376.097 810.943 374.945 811.936 373.608 812.449C373.298 812.562 372.98 812.651 372.656 812.715C373.793 809.895 375.877 807.557 378.551 806.103C381.226 804.649 384.324 804.169 387.314 804.746C390.304 805.323 393 806.921 394.939 809.265C396.878 811.609 397.939 814.553 397.94 817.593C397.943 818.513 397.846 819.43 397.65 820.329C397.679 820.386 397.702 820.448 397.726 820.505C398.24 821.82 398.816 823.193 399.325 824.366L401.828 826.627C401.828 826.627 402.89 827.501 404.479 828.845C407.944 831.757 413.93 836.887 417.014 840.021C419.77 842.786 420.626 853.535 420.874 861.628Z" fill="black"/>
<path d="M373.484 804.388C374.117 803.101 374.436 801.662 375.188 800.446C376.297 798.665 378.238 797.549 380.223 796.865C385.42 795.079 396.403 792.481 399.682 796.865C400.329 797.734 400.862 798.731 401.757 799.344C402.48 799.737 403.233 800.074 404.008 800.351C406.102 801.334 407.439 803.467 408.153 805.661C408.867 807.856 409.076 810.183 409.581 812.435C410.247 815.313 411.422 818.044 412.588 820.761C413.964 823.967 415.444 827.287 418.08 829.558C421.702 832.65 422.515 837.024 425.861 840.411C429.844 844.439 429.716 851.084 427.665 856.356C427.325 857.023 427.161 857.765 427.189 858.513C427.382 859.276 427.79 859.968 428.364 860.507L430.539 862.958C427.941 863.518 425.232 863.218 422.82 862.104C420.408 860.99 418.425 859.122 417.171 856.784C416.429 855.325 415.939 853.649 414.673 852.613C413.54 851.687 412.013 851.464 410.604 851.046C405.954 849.673 402.038 845.432 401.905 840.596C401.838 838.326 402.547 836.046 402.228 833.794C402.037 832.533 401.53 831.34 400.753 830.327C399.53 828.741 397.698 827.663 396.708 825.924C395.033 822.974 396.303 819.137 395.095 815.949C394.723 815 393.981 814.007 392.944 813.931C391.906 813.855 391.011 814.719 390.022 815.104C387.947 815.907 385.71 814.539 383.983 813.142C382.255 811.746 380.299 810.155 378.101 810.468C376.644 810.672 375.497 811.66 374.155 812.173C373.165 812.553 371.157 812.895 370.286 812.059C368.464 810.311 372.704 805.951 373.484 804.388Z" fill="#591D4B"/>
<path opacity="0.1" d="M418.409 855.325C417.671 853.867 417.181 852.191 415.915 851.15C414.782 850.224 413.25 850.001 411.846 849.588C407.197 848.215 403.28 843.973 403.147 839.138C403.076 836.863 403.789 834.588 403.466 832.336C403.283 831.059 402.773 829.85 401.986 828.826C400.767 827.24 398.93 826.157 397.945 824.418C396.265 821.469 397.541 817.631 396.332 814.444C395.961 813.494 395.219 812.501 394.181 812.425C393.144 812.349 392.249 813.209 391.259 813.594C389.184 814.401 386.943 813.033 385.22 811.637C383.497 810.24 381.537 808.649 379.333 808.958C377.906 809.162 376.735 810.15 375.393 810.668C374.403 811.048 372.395 811.39 371.524 810.554C369.701 808.796 373.941 804.436 374.708 802.878C375.341 801.591 375.659 800.152 376.411 798.936L376.54 798.736C375.98 799.209 375.498 799.767 375.112 800.389C374.351 801.605 374.037 803.044 373.408 804.331C372.642 805.894 368.402 810.254 370.225 812.007C371.091 812.843 373.08 812.482 374.094 812.121C375.431 811.608 376.578 810.62 378.034 810.411C380.233 810.102 382.189 811.694 383.916 813.09C385.644 814.487 387.885 815.854 389.955 815.052C390.95 814.667 391.816 813.798 392.877 813.879C393.938 813.959 394.662 814.923 395.033 815.897C396.242 819.065 394.966 822.903 396.641 825.872C397.631 827.605 399.468 828.688 400.687 830.275C401.474 831.298 401.984 832.507 402.167 833.785C402.49 836.036 401.776 838.312 401.848 840.587C401.995 845.427 405.898 849.668 410.547 851.036C411.951 851.45 413.483 851.673 414.616 852.604C415.882 853.639 416.367 855.316 417.11 856.774C418.364 859.113 420.346 860.98 422.758 862.094C425.17 863.208 427.88 863.508 430.477 862.949L429.454 861.79C424.962 861.866 420.446 859.329 418.409 855.325Z" fill="black"/>
<path opacity="0.1" d="M387.914 835.172C387.333 836.036 385.677 840.577 384.292 844.52C382.998 844.021 381.817 840.81 381.817 840.81L388.713 831.002C389.436 831.971 388.97 833.586 387.914 835.172Z" fill="black"/>
<path d="M388.175 834.906C387.599 835.77 385.943 840.311 384.554 844.258C383.259 843.76 382.084 840.549 382.084 840.549L388.994 830.74C389.703 831.705 389.236 833.32 388.175 834.906Z" fill="#DCE7FF"/>
<path d="M348.005 880.01L344.174 867.969C344.128 867.828 344.111 867.679 344.123 867.53C344.135 867.382 344.176 867.237 344.244 867.105C344.312 866.973 344.406 866.855 344.52 866.759C344.633 866.663 344.765 866.59 344.907 866.544C345.049 866.497 345.199 866.479 345.348 866.49C345.497 866.502 345.642 866.543 345.775 866.611C345.908 866.679 346.026 866.773 346.122 866.887C346.218 867.001 346.29 867.133 346.335 867.276L350.166 879.326L349.785 881.848L348.005 880.01Z" fill="#BE8B87"/>
<path opacity="0.1" d="M344.536 866.901C344.678 866.855 344.828 866.838 344.977 866.85C345.126 866.862 345.271 866.904 345.403 866.972C345.536 867.041 345.654 867.135 345.75 867.249C345.846 867.363 345.919 867.495 345.964 867.637L349.795 879.678L349.504 881.578L349.785 881.867L350.166 879.345L346.335 867.304C346.291 867.162 346.218 867.03 346.122 866.916C346.026 866.801 345.908 866.707 345.775 866.639C345.642 866.571 345.497 866.53 345.348 866.519C345.199 866.507 345.049 866.526 344.907 866.573C344.669 866.647 344.462 866.799 344.322 867.005C344.389 866.963 344.461 866.928 344.536 866.901Z" fill="white"/>
<path d="M348.005 880.01L350.156 879.326L349.842 881.397L349.775 881.848L349.147 881.193L348.005 880.01Z" fill="#EFC8C4"/>
<path d="M349.147 881.193C349.187 881.147 349.233 881.109 349.285 881.079C349.316 881.06 349.352 881.05 349.388 881.05C349.424 881.05 349.459 881.06 349.49 881.079C349.521 881.114 349.547 881.154 349.566 881.198C349.595 881.248 349.635 881.29 349.683 881.322C349.73 881.354 349.785 881.375 349.842 881.383L349.776 881.858L349.147 881.193Z" fill="#727A9C"/>
<path d="M344.155 872.235C344.155 872.235 351.841 872.192 350.028 875.45C348.215 878.709 345.393 879.108 345.393 879.108L344.155 872.235Z" fill="#FFB0B1"/>
</g>
<path d="M877.946 668.459C877.946 682.012 804.758 693 714.473 693C624.188 693 551 682.012 551 668.459C551 658.864 587.686 650.551 641.153 646.519C663.2 644.851 688.112 643.917 714.473 643.917C725.31 643.917 735.898 644.076 746.139 644.376C821.268 646.593 877.946 656.531 877.946 668.459Z" fill="white"/>
<path opacity="0.1" d="M693.38 673.472C728.037 673.472 756.132 670.046 756.132 665.82C756.132 661.593 728.037 658.167 693.38 658.167C658.722 658.167 630.627 661.593 630.627 665.82C630.627 670.046 658.722 673.472 693.38 673.472Z" fill="#034EDF"/>
<path d="M693.116 671.361C725.88 671.361 752.441 643.006 752.441 608.029C752.441 573.051 725.88 544.696 693.116 544.696C660.352 544.696 633.791 573.051 633.791 608.029C633.791 643.006 660.352 671.361 693.116 671.361Z" fill="white"/>
<path d="M711.836 645.501H674.923V679.278H711.836V645.501Z" fill="#003AD9"/>
<path d="M760.087 653.681L757.978 665.292L771.688 667.403L780.653 662.126L780.126 653.681H760.087Z" fill="#575A89"/>
<path d="M691.007 435.711C691.007 435.711 689.952 447.85 687.315 448.378C684.679 448.906 693.116 470.017 693.116 470.017H705.772L715.791 467.378L711.045 455.767C711.045 455.767 704.717 447.322 709.463 440.461C714.209 433.6 691.007 435.711 691.007 435.711Z" fill="#A0616A"/>
<path opacity="0.1" d="M691.007 435.711C691.007 435.711 689.952 447.85 687.315 448.378C684.679 448.906 693.116 470.017 693.116 470.017H705.772L715.791 467.378L711.045 455.767C711.045 455.767 704.717 447.322 709.463 440.461C714.209 433.6 691.007 435.711 691.007 435.711Z" fill="black"/>
<path d="M664.64 528.599C664.64 528.599 650.929 554.988 662.003 560.265C673.077 565.543 675.714 565.015 675.714 566.599C675.714 568.182 673.605 567.654 674.659 570.293C675.714 572.932 672.55 583.487 675.714 589.821C678.878 596.154 677.823 600.904 677.823 600.904C677.823 600.904 677.823 601.432 678.878 603.543C679.933 605.654 680.46 607.237 679.933 608.293C679.405 609.348 676.241 616.209 679.405 617.793C682.569 619.376 698.917 620.431 700.499 617.793C702.081 615.154 698.917 613.57 700.499 611.987C702.081 610.404 703.135 609.876 702.081 608.82C701.026 607.765 699.971 594.571 699.971 594.571C699.971 594.571 702.608 579.265 701.553 577.154C700.499 575.043 698.917 572.932 699.971 571.349C701.026 569.765 702.081 570.293 702.608 568.182C703.135 566.071 704.19 561.321 704.19 561.321L709.991 560.793L723.701 563.432C723.701 563.432 738.994 580.321 755.869 585.599C755.869 585.599 760.614 590.348 762.196 590.348C763.778 590.348 763.778 590.348 763.251 591.404C762.724 592.46 761.142 592.46 762.196 593.515C763.251 594.571 764.833 592.987 763.778 594.571C762.724 596.154 761.669 596.154 762.724 597.209C763.778 598.265 762.196 604.071 762.196 604.598C762.196 605.126 757.451 654.737 759.033 655.792C760.614 656.848 782.762 660.014 784.344 655.792C785.926 651.57 783.29 646.292 783.29 646.292C783.29 646.292 791.2 582.96 789.09 578.737C786.981 574.515 779.598 555.516 740.049 543.377C740.049 543.377 728.975 541.266 728.975 539.682C728.975 538.099 727.92 528.071 725.811 527.544C723.701 527.016 711.573 526.488 711.573 526.488L696.28 531.238L675.187 527.544L664.64 528.599Z" fill="#2F2E41"/>
<path d="M683.097 617.265L680.46 626.765C680.46 626.765 678.351 642.07 680.987 645.764C683.058 648.666 686.756 652.219 693.614 652.843C695.536 653.02 697.46 652.534 699.069 651.467C700.678 650.4 701.875 648.816 702.462 646.975C702.54 646.755 702.59 646.525 702.608 646.292C702.608 645.237 701.026 632.57 701.026 632.57L698.389 619.376L697.862 615.682L683.097 617.265Z" fill="#2F2E41"/>
<path d="M760.087 662.653C760.087 662.653 757.451 660.014 756.923 662.653C756.396 665.292 754.287 676.375 757.978 676.903C761.669 677.431 797.001 682.708 800.692 680.597C804.383 678.486 811.238 675.32 807.02 673.736C802.801 672.153 790.673 667.403 790.673 667.403C790.673 667.403 783.817 658.431 782.763 657.903C781.708 657.375 775.907 658.431 773.271 660.542C770.634 662.653 760.087 662.653 760.087 662.653Z" fill="#2F2E41"/>
<path d="M703.663 446.795C712.691 446.795 720.01 439.47 720.01 430.434C720.01 421.398 712.691 414.073 703.663 414.073C694.634 414.073 687.315 421.398 687.315 430.434C687.315 439.47 694.634 446.795 703.663 446.795Z" fill="#A0616A"/>
<path d="M702.081 467.378L695.753 460.517L688.738 446.795C688.738 446.795 683.624 445.211 682.569 447.85C681.515 450.489 662.531 458.933 662.531 458.933C662.531 458.933 667.277 503.266 665.167 507.488C663.058 511.711 659.367 528.599 662.531 530.183C665.695 531.766 680.46 530.183 685.206 532.294C689.952 534.405 703.663 534.405 707.354 531.766C711.045 529.127 712.1 527.016 715.791 528.599C718.934 529.947 726.28 483.865 728.395 470.132C728.574 468.979 728.426 467.798 727.968 466.725C727.511 465.651 726.762 464.727 725.807 464.058C721.076 460.736 712.554 455.012 711.045 455.767C708.936 456.822 702.081 467.378 702.081 467.378Z" fill="white"/>
<path d="M724.756 465.267C725.994 465.576 727.108 466.258 727.948 467.22C728.788 468.182 729.314 469.378 729.455 470.648L733.721 509.072C733.721 509.072 723.174 531.766 717.901 516.46C712.627 501.155 724.756 465.267 724.756 465.267Z" fill="white"/>
<path d="M723.701 512.766L735.302 509.599C735.302 509.599 737.412 524.377 739.521 524.377C741.63 524.377 732.138 532.821 727.393 531.766C722.647 530.71 715.791 527.016 715.264 524.377C714.737 521.738 720.01 510.655 720.01 510.655L723.701 512.766Z" fill="white"/>
<path d="M691.322 437.492C692.434 435.039 692.241 432.177 693.16 429.645C693.652 428.29 694.45 427.067 695.493 426.071C696.536 425.075 697.794 424.334 699.17 423.906C700.547 423.478 702.003 423.374 703.426 423.602C704.849 423.831 706.2 424.385 707.373 425.222C708.555 426.066 709.74 427.251 711.183 427.09C712.737 426.917 714.123 425.182 715.552 425.818C717.135 426.522 716.708 429.363 718.312 430.019C719.156 430.364 720.154 429.832 720.641 429.06C721.067 428.249 721.299 427.35 721.319 426.434C721.541 424.183 721.741 421.801 720.765 419.76C720.355 419.069 719.997 418.347 719.696 417.602C719.525 416.906 719.457 416.188 719.492 415.473C719.483 412.827 719.29 410.067 717.96 407.781C716.484 405.244 713.755 403.621 710.908 402.913C708.061 402.206 705.078 402.314 702.155 402.562C697.323 402.971 692.284 403.849 688.477 406.855C687.959 407.234 687.514 407.702 687.162 408.238C686.828 408.874 686.592 409.558 686.462 410.265C685.639 413.62 684.405 416.86 682.788 419.911C682.01 421.205 681.374 422.579 680.892 424.01C680.488 425.463 680.515 427.12 681.36 428.37C682.048 429.387 683.148 429.929 684.012 430.761C684.869 431.585 685.269 433.17 686.218 433.794C687.046 434.338 688.038 433.954 688.882 434.531C689.967 435.272 690.045 436.898 691.322 437.492Z" fill="#2F2E41"/>
<path d="M733.848 485.622L734.126 485.993L734.516 485.744L734.248 485.322L734.516 485.744L734.517 485.744L734.518 485.743L734.524 485.739L734.548 485.724C734.569 485.71 734.601 485.69 734.644 485.664C734.729 485.611 734.855 485.533 735.018 485.434C735.344 485.236 735.818 484.954 736.407 484.618C737.585 483.947 739.221 483.063 741.05 482.213C742.882 481.362 744.898 480.549 746.839 480.015C748.789 479.478 750.618 479.236 752.095 479.482L757.394 480.366L738.822 496.944L714.538 494.876L705.273 475.3L706.558 472.728C706.716 472.776 706.917 472.838 707.157 472.912C707.799 473.112 708.721 473.403 709.842 473.773C712.086 474.514 715.125 475.566 718.311 476.815C721.499 478.065 724.824 479.508 727.641 481.029C730.478 482.559 732.732 484.133 733.848 485.622Z" fill="#F2F2F2" stroke="#0E56E1"/>
<path d="M738.544 490.29L738.547 490.295L738.547 490.296L738.547 490.296L738.547 490.296L738.547 490.296L738.773 490.748L739.222 490.517L756.944 481.409L738.662 507.618L718.092 517.062L718.049 517.081L718.011 517.108C717.05 517.788 715.924 517.804 714.985 517.619C714.52 517.528 714.117 517.39 713.831 517.275C713.688 517.217 713.575 517.166 713.5 517.13C713.462 517.112 713.434 517.098 713.416 517.089L713.397 517.079L713.394 517.077L713.393 517.077L713.393 517.077L713.393 517.077L713.393 517.076L713.385 517.072L713.375 517.067L682.793 502.023L703.811 472.778L732.426 488.4L732.656 488.525L732.89 488.408C733.866 487.919 734.69 487.811 735.372 487.896C736.058 487.982 736.637 488.269 737.112 488.625C737.588 488.982 737.95 489.403 738.194 489.739C738.315 489.906 738.406 490.049 738.465 490.149C738.494 490.199 738.516 490.238 738.53 490.263C738.536 490.276 738.541 490.285 738.544 490.29Z" fill="#003AD9" stroke="white"/>
<path d="M736.885 525.433L741.103 514.349C741.103 514.349 750.595 502.211 745.322 496.405C740.049 490.6 734.248 513.294 734.248 513.294L736.885 525.433Z" fill="#A0616A"/>
<path d="M688.211 523.664L697.416 516.195C697.416 516.195 711.712 510.461 710.061 502.791C708.409 495.121 692.015 511.84 692.015 511.84L688.211 523.664Z" fill="#A0616A"/>
<path opacity="0.1" d="M665.431 470.28H664.904C664.904 470.28 656.73 460.517 655.148 473.711C653.566 486.905 648.293 530.71 662.003 532.294C675.714 533.877 685.47 525.696 685.47 525.696C685.47 525.696 695.489 510.391 691.798 510.391C690.012 510.391 685.154 509.588 680.724 509.863C675.997 510.157 671.75 511.489 672.023 510.127C672.55 507.488 680.196 473.975 665.431 470.28Z" fill="black"/>
<path d="M664.64 459.989L662.531 458.933C662.531 458.933 654.093 460.517 652.511 473.711C650.929 486.905 645.656 530.71 659.367 532.294C673.077 533.877 691.534 530.183 691.534 530.183C691.534 530.183 695.225 510.127 691.534 510.127C687.843 510.127 668.859 512.766 669.386 510.127C669.913 507.488 679.405 463.683 664.64 459.989Z" fill="white"/>
<path d="M729.238 519.363L735.053 510.444L738.73 525.169L729.238 529.391V519.363Z" fill="#2F2E41"/>
<path d="M609.783 392.17C617.647 392.17 624.021 385.79 624.021 377.92C624.021 370.051 617.647 363.671 609.783 363.671C601.92 363.671 595.545 370.051 595.545 377.92C595.545 385.79 601.92 392.17 609.783 392.17Z" fill="#F2F2F2"/>
<path d="M626.658 484.003H592.909V517.78H626.658V484.003Z" fill="#F2F2F2"/>
<path d="M747.167 333L755.71 347.808L764.251 362.615H747.167H730.083L738.625 347.808L747.167 333Z" fill="#F2F2F2"/>
<path d="M896 421.786C895.796 428.104 894.259 433.168 891.389 436.978C888.518 440.788 885.107 442.693 881.157 442.693C877.94 442.693 875.12 440.829 872.698 437.1C870.275 433.371 869.063 427.635 869.063 419.891C869.063 418.18 869.104 416.55 869.186 415.001C869.267 413.452 869.369 411.985 869.491 410.599L871.629 390.487H857.519C855.076 415.918 853.071 431.048 851.503 435.877C849.935 440.707 847.278 443.121 843.532 443.121C841.841 443.08 840.227 442.403 839.012 441.226C838.307 440.601 837.749 439.827 837.38 438.96C837.01 438.094 836.837 437.155 836.874 436.213C836.874 434.34 838.35 431.721 841.302 428.358C844.254 424.996 845.893 421.929 846.219 419.158L849.884 390.487H843.959C842.289 390.497 840.645 390.906 839.165 391.679C837.802 392.306 836.616 393.261 835.713 394.461L833.087 398.373H830.949C832.944 392.179 835.397 387.522 838.309 384.404C841.22 381.287 844.569 379.728 848.357 379.728H895.023V390.487H879.264C878.775 395.378 878.399 400.268 878.134 405.159C877.869 410.049 877.736 414.96 877.737 419.891C877.737 423.234 878.511 425.944 880.058 428.022C881.605 430.1 883.539 431.14 885.861 431.14C887.286 431.14 888.782 430.559 890.35 429.397C891.095 428.874 891.718 428.197 892.176 427.411C892.635 426.625 892.918 425.749 893.007 424.843C893.129 423.947 893.221 423.244 893.282 422.734C893.343 422.225 893.374 421.909 893.374 421.786L896 421.786Z" fill="#6C63FF"/>
<path opacity="0.1" d="M896 421.786C895.796 428.104 894.259 433.168 891.389 436.978C888.518 440.788 885.107 442.693 881.157 442.693C877.94 442.693 875.12 440.829 872.698 437.1C870.275 433.371 869.063 427.635 869.063 419.891C869.063 418.18 869.104 416.55 869.186 415.001C869.267 413.452 869.369 411.985 869.491 410.599L871.629 390.487H857.519C855.076 415.918 853.071 431.048 851.503 435.877C849.935 440.707 847.278 443.121 843.532 443.121C841.841 443.08 840.227 442.403 839.012 441.226C838.307 440.601 837.749 439.827 837.38 438.96C837.01 438.094 836.837 437.155 836.874 436.213C836.874 434.34 838.35 431.721 841.302 428.358C844.254 424.996 845.893 421.929 846.219 419.158L849.884 390.487H843.959C842.289 390.497 840.645 390.906 839.165 391.679C837.802 392.306 836.616 393.261 835.713 394.461L833.087 398.373H830.949C832.944 392.179 835.397 387.522 838.309 384.404C841.22 381.287 844.569 379.728 848.357 379.728H895.023V390.487H879.264C878.775 395.378 878.399 400.268 878.134 405.159C877.869 410.049 877.736 414.96 877.737 419.891C877.737 423.234 878.511 425.944 880.058 428.022C881.605 430.1 883.539 431.14 885.861 431.14C887.286 431.14 888.782 430.559 890.35 429.397C891.095 428.874 891.718 428.197 892.176 427.411C892.635 426.625 892.918 425.749 893.007 424.843C893.129 423.947 893.221 423.244 893.282 422.734C893.343 422.225 893.374 421.909 893.374 421.786L896 421.786Z" fill="black"/>
<path d="M896 419.876C895.796 426.194 894.259 431.258 891.389 435.068C888.518 438.878 885.107 440.783 881.157 440.784C877.94 440.784 875.12 438.919 872.698 435.19C870.275 431.461 869.063 425.725 869.063 417.981C869.063 416.27 869.104 414.64 869.186 413.091C869.267 411.542 869.369 410.075 869.491 408.689L871.629 388.577H857.519C855.076 414.008 853.071 429.138 851.503 433.967C849.935 438.797 847.278 441.211 843.532 441.211C841.841 441.17 840.227 440.493 839.012 439.316C838.307 438.691 837.749 437.917 837.38 437.05C837.01 436.184 836.837 435.245 836.874 434.303C836.874 432.43 838.35 429.811 841.302 426.448C844.254 423.086 845.893 420.019 846.219 417.248L849.884 388.577H843.959C842.289 388.587 840.645 388.996 839.165 389.769C837.802 390.396 836.616 391.351 835.713 392.551L833.087 396.463H830.949C832.944 390.269 835.397 385.612 838.309 382.494C841.22 379.377 844.569 377.818 848.357 377.818H895.023V388.577H879.264C878.775 393.468 878.399 398.358 878.134 403.249C877.869 408.139 877.736 413.05 877.737 417.981C877.737 421.324 878.511 424.034 880.058 426.112C881.605 428.19 883.539 429.23 885.861 429.23C887.286 429.23 888.782 428.649 890.35 427.487C891.095 426.965 891.718 426.287 892.176 425.501C892.635 424.715 892.918 423.839 893.007 422.933C893.129 422.037 893.221 421.334 893.282 420.824C893.343 420.315 893.374 419.999 893.374 419.876H896Z" fill="#FAFAFA"/>
<g clip-path="url(#clip1)">
<path d="M191.599 132.775C191.604 132.044 191.459 131.32 191.173 130.649C190.887 129.977 190.465 129.372 189.935 128.871C189.405 128.37 188.778 127.983 188.093 127.736C187.407 127.489 186.678 127.387 185.952 127.435C185.225 127.483 184.516 127.681 183.869 128.016C183.222 128.352 182.65 128.817 182.191 129.384C181.731 129.95 181.393 130.606 181.197 131.31C181.001 132.013 180.952 132.75 181.053 133.473L165.83 153.468C165.18 154.771 164.928 156.237 165.106 157.683C165.283 159.129 165.882 160.49 166.827 161.596L168.022 162.994L173.501 161.895L179.711 156.399L178.98 150.171L186.651 138.08L186.642 138.072C187.984 137.986 189.244 137.391 190.165 136.407C191.086 135.423 191.599 134.124 191.599 132.775V132.775Z" fill="#FFB9B9"/>
<path d="M86.3246 230.526L83.8396 221.269L118.255 207.252L121.922 220.913L86.3246 230.526Z" fill="#FFB8B8"/>
<path d="M78.0121 235.302L70 205.456L70.3764 205.354C73.4483 204.525 76.7229 204.953 79.4799 206.545C82.2369 208.137 84.2505 210.762 85.0779 213.843L85.0781 213.844L89.9715 232.073L78.0121 235.302Z" fill="#2F2E41"/>
<path d="M133.73 229.047L126.001 223.409L144.005 190.823L155.413 199.144L133.73 229.047Z" fill="#FFB8B8"/>
<path d="M130.253 238L105.329 219.821L105.558 219.504C107.429 216.924 110.246 215.195 113.388 214.697C116.53 214.199 119.741 214.974 122.314 216.85L122.315 216.85L137.537 227.954L130.253 238Z" fill="#2F2E41"/>
<path d="M199.437 183.511L179.985 164.559C178.287 162.905 176.052 161.921 173.688 161.789C171.325 161.656 168.994 162.384 167.123 163.838L130.396 204.76L133.684 209.889L168.752 186.075L192.496 217.217L215.144 205.859L199.437 183.511Z" fill="white"/>
<path d="M191.035 187.541L176.788 186.442L166.471 183.933C165.889 183.021 165.042 182.31 164.045 181.894C163.048 181.478 161.948 181.377 160.892 181.605C159.837 181.834 158.876 182.38 158.138 183.171C157.401 183.963 156.922 184.961 156.766 186.032C156.609 187.104 156.783 188.198 157.264 189.168C157.745 190.138 158.51 190.937 159.456 191.459C160.402 191.981 161.485 192.2 162.559 192.088C163.633 191.976 164.647 191.537 165.466 190.831L165.464 190.838L171.675 193.403L198.341 202.562L201.628 199.997L191.035 187.541Z" fill="#FFB9B9"/>
<path d="M225.372 227.109L217.336 232.238H207.838L163.638 215.752L98.9813 227.476L97.1549 213.553L156.332 187.541L208.204 204.76L225.372 227.109Z" fill="white"/>
<path d="M208.204 138.08C216.072 138.08 222.45 131.683 222.45 123.792C222.45 115.9 216.072 109.503 208.204 109.503C200.336 109.503 193.957 115.9 193.957 123.792C193.957 131.683 200.336 138.08 208.204 138.08Z" fill="#FFB9B9"/>
<path d="M245.065 180.84C245.065 189.463 243.71 198.033 241.051 206.233L239.984 209.523L234.87 232.971L229.391 234.436L225.372 229.307L217.336 223.445L211.491 213.92L206.48 205.544L204.916 202.928L199.437 175.45L178.615 163.726L171.674 162.627L173.136 158.597L179.346 150.171L185.556 149.438L187.382 147.972L188.843 148.705L196.898 151.817L223.013 140.751L226.834 141.378L239.984 152.369C243.346 161.482 245.066 171.122 245.065 180.84V180.84Z" fill="#2F2E41"/>
<path opacity="0.1" d="M241.08 177.649L227.199 186.808L206.48 205.544L204.916 202.928L200.532 180.946H201.629L212.953 160.063L241.08 177.649Z" fill="#2F2E41"/>
<path d="M212.953 157.864L201.629 178.747L195.053 186.075L189.209 187.541L204.916 204.76L227.199 184.61L241.08 175.45L212.953 157.864Z" fill="#2F2E41"/>
<path d="M197.123 113.168L195.579 113.763C195.345 113.604 195.144 113.4 194.988 113.163C194.833 112.926 194.725 112.661 194.672 112.382C194.618 112.104 194.62 111.817 194.677 111.539C194.734 111.261 194.845 110.997 195.003 110.762C195.011 110.75 195.02 110.737 195.028 110.725L192.176 110.591C194.007 108.145 196.335 106.117 199.006 104.641C201.677 103.165 204.63 102.275 207.67 102.029C210.71 101.783 213.767 102.188 216.639 103.216C219.512 104.244 222.134 105.872 224.332 107.992C224.461 107.543 225.877 108.416 226.455 109.301C226.649 108.571 227.977 112.1 228.446 114.594C228.664 113.764 229.499 115.104 228.767 116.391C229.231 116.323 229.441 117.513 229.081 118.177C229.589 117.938 229.503 119.359 228.953 120.308C229.677 120.244 228.891 135.204 218.023 134.114C217.267 130.628 217.48 130.844 216.589 126.361C216.174 125.919 215.72 125.517 215.267 125.116L212.814 122.945C209.963 120.42 207.369 117.305 203.57 116.361C200.96 115.713 199.309 115.566 200.732 112.616C199.447 113.154 198.246 113.954 196.949 114.454C196.967 114.041 197.148 113.58 197.123 113.168Z" fill="#2F2E41"/>
<path d="M215.327 128.005C216.739 128.005 217.884 126.857 217.884 125.44C217.884 124.024 216.739 122.876 215.327 122.876C213.915 122.876 212.77 124.024 212.77 125.44C212.77 126.857 213.915 128.005 215.327 128.005Z" fill="#FFB9B9"/>
<path d="M96.0825 64.8696L95.3021 76.6216L107.019 77.4042L107.8 65.6523L96.0825 64.8696Z" fill="#E6E6E6"/>
<path d="M88.5226 71.1098L102.751 72.0602L101.803 86.3303L87.5751 85.38L88.5226 71.1098ZM102.091 72.6393L89.1 71.7716L88.2349 84.8008L101.226 85.6685L102.091 72.6393Z" fill="#CCCCCC"/>
<path d="M162.298 30.0217L150.817 32.496L153.284 44.0111L164.765 41.5368L162.298 30.0217Z" fill="#E6E6E6"/>
<path d="M154.24 24.4442L157.236 38.4269L143.294 41.4313L140.299 27.4487L154.24 24.4442ZM156.499 37.9496L153.764 25.1828L141.035 27.926L143.77 40.6928L156.499 37.9496Z" fill="#CCCCCC"/>
<path d="M150.235 85.3214L141.664 93.373L149.692 101.969L158.262 93.9174L150.235 85.3214Z" fill="#E6E6E6"/>
<path d="M158.879 84.1169L148.472 93.8939L138.723 83.4559L149.131 73.6789L158.879 84.1169ZM148.5 93.0149L158.002 84.0881L149.102 74.5578L139.6 83.4846L148.5 93.0149Z" fill="#CCCCCC"/>
<path d="M593.456 0H246.008C244.752 -1.43146e-06 243.509 0.24809 242.348 0.730109C241.188 1.21213 240.134 1.91863 239.246 2.80929C238.358 3.69994 237.653 4.75731 237.173 5.921C236.692 7.0847 236.445 8.33195 236.445 9.59152V203.756C236.445 205.016 236.692 206.263 237.173 207.427C237.653 208.59 238.358 209.648 239.246 210.538C240.134 211.429 241.188 212.136 242.348 212.618C243.509 213.1 244.752 213.348 246.008 213.348H593.456C595.993 213.348 598.425 212.337 600.219 210.538C602.012 208.74 603.02 206.3 603.02 203.756V9.59152C603.02 7.04769 602.012 4.60805 600.219 2.80929C598.425 1.01053 595.993 1.44548e-06 593.456 0V0Z" fill="#3F3D56"/>
<path d="M590.198 16.9509H249.266V209.841H590.198V16.9509Z" fill="white"/>
<path d="M419.441 11.6903C421.372 11.6903 422.938 10.1201 422.938 8.1832C422.938 6.24629 421.372 4.67612 419.441 4.67612C417.51 4.67612 415.944 6.24629 415.944 8.1832C415.944 10.1201 417.51 11.6903 419.441 11.6903Z" fill="white"/>
<path d="M502.271 207.504H258.84V14.614L502.271 207.504Z" fill="#F2F2F2"/>
<path d="M302.612 195.407C320.711 195.407 335.383 180.691 335.383 162.538C335.383 144.385 320.711 129.67 302.612 129.67C284.513 129.67 269.84 144.385 269.84 162.538C269.84 180.691 284.513 195.407 302.612 195.407Z" fill="#003AD9"/>
<path d="M309.907 187.242C301.845 187.242 293.963 184.844 287.26 180.352C280.556 175.859 275.331 169.474 272.246 162.003C269.16 154.532 268.353 146.311 269.926 138.381C271.499 130.45 275.381 123.165 281.082 117.447C286.783 111.729 294.047 107.835 301.954 106.257C309.862 104.68 318.058 105.489 325.507 108.584C332.956 111.678 339.322 116.919 343.802 123.642C348.281 130.366 350.672 138.271 350.672 146.357C350.672 151.726 349.617 157.043 347.569 162.003C345.52 166.963 342.517 171.47 338.732 175.267C334.947 179.064 330.453 182.075 325.507 184.13C320.561 186.184 315.26 187.242 309.907 187.242V187.242ZM309.907 106.006C301.95 106.006 294.172 108.373 287.556 112.806C280.94 117.24 275.783 123.542 272.738 130.915C269.693 138.288 268.896 146.402 270.448 154.229C272.001 162.056 275.832 169.246 281.459 174.889C287.085 180.532 294.254 184.375 302.058 185.932C309.862 187.489 317.952 186.69 325.303 183.636C332.654 180.582 338.938 175.41 343.358 168.774C347.779 162.139 350.139 154.337 350.139 146.357C350.139 141.058 349.098 135.811 347.076 130.915C345.054 126.02 342.091 121.572 338.355 117.825C334.619 114.078 330.184 111.106 325.303 109.078C320.422 107.05 315.19 106.006 309.907 106.006L309.907 106.006Z" fill="#3F3D56"/>
<path d="M511.274 117.163H479.427V123.837H511.274V117.163Z" fill="#003AD9"/>
<path d="M541.404 81.0046H449.297V83.865H541.404V81.0046Z" fill="#003AD9"/>
<path d="M541.404 92.2426H449.297V95.1029H541.404V92.2426Z" fill="#003AD9"/>
<path d="M541.404 103.481H449.297V106.341H541.404V103.481Z" fill="#003AD9"/>
<path d="M566.077 28.4945H552.768V41.843H566.077V28.4945Z" fill="#003AD9"/>
<path d="M572.256 48.0405H556.095V31.8316H572.256V48.0405ZM556.798 47.3358H571.554V32.5364H556.798L556.798 47.3358Z" fill="#CCCCCC"/>
<path d="M612.592 206.333H579.319V203.929C579.319 203.866 579.307 203.804 579.283 203.747C579.259 203.689 579.224 203.636 579.18 203.592C579.136 203.548 579.084 203.513 579.026 203.489C578.968 203.465 578.906 203.452 578.844 203.452H567.436C567.374 203.452 567.312 203.465 567.254 203.489C567.197 203.513 567.144 203.548 567.1 203.592C567.056 203.636 567.021 203.689 566.997 203.747C566.973 203.804 566.961 203.866 566.961 203.929V206.333H559.831V203.929C559.831 203.866 559.819 203.805 559.795 203.747C559.771 203.689 559.736 203.636 559.692 203.592C559.648 203.548 559.595 203.513 559.538 203.489C559.48 203.465 559.418 203.452 559.356 203.452H547.948C547.886 203.452 547.824 203.465 547.766 203.489C547.708 203.513 547.656 203.548 547.612 203.592C547.568 203.636 547.533 203.689 547.509 203.747C547.485 203.805 547.473 203.866 547.473 203.929V203.929V206.333H540.343V203.929C540.343 203.866 540.331 203.805 540.307 203.747C540.283 203.689 540.248 203.636 540.204 203.592C540.159 203.548 540.107 203.513 540.049 203.489C539.992 203.465 539.93 203.452 539.867 203.452H528.46C528.397 203.452 528.335 203.465 528.278 203.489C528.22 203.513 528.168 203.548 528.124 203.592C528.079 203.636 528.044 203.689 528.02 203.747C527.997 203.805 527.984 203.866 527.984 203.929V203.929V206.333H520.854V203.929C520.854 203.866 520.842 203.805 520.818 203.747C520.794 203.689 520.759 203.636 520.715 203.592C520.671 203.548 520.619 203.513 520.561 203.489C520.503 203.465 520.442 203.452 520.379 203.452H508.971C508.909 203.452 508.847 203.465 508.789 203.489C508.732 203.513 508.679 203.548 508.635 203.592C508.591 203.636 508.556 203.689 508.532 203.747C508.508 203.804 508.496 203.866 508.496 203.929V206.333H501.366V203.929C501.366 203.866 501.354 203.805 501.33 203.747C501.306 203.689 501.271 203.636 501.227 203.592C501.183 203.548 501.13 203.513 501.073 203.489C501.015 203.465 500.953 203.452 500.891 203.452H489.483C489.421 203.452 489.359 203.465 489.301 203.489C489.243 203.513 489.191 203.548 489.147 203.592C489.103 203.636 489.068 203.689 489.044 203.747C489.02 203.805 489.008 203.866 489.008 203.929V203.929V206.333H481.878V203.929C481.878 203.866 481.866 203.805 481.842 203.747C481.818 203.689 481.783 203.636 481.739 203.592C481.694 203.548 481.642 203.513 481.584 203.489C481.527 203.465 481.465 203.452 481.402 203.452H469.995C469.932 203.452 469.87 203.465 469.813 203.489C469.755 203.513 469.703 203.548 469.659 203.592C469.614 203.636 469.579 203.689 469.556 203.747C469.532 203.805 469.519 203.866 469.519 203.929V203.929V206.333H462.39V203.929C462.39 203.866 462.377 203.805 462.353 203.747C462.329 203.689 462.294 203.636 462.25 203.592C462.206 203.548 462.154 203.513 462.096 203.489C462.038 203.465 461.977 203.452 461.914 203.452H372.553C372.491 203.452 372.429 203.465 372.371 203.489C372.313 203.513 372.261 203.548 372.217 203.592C372.173 203.636 372.138 203.689 372.114 203.747C372.09 203.805 372.078 203.866 372.078 203.929V203.929V206.333H364.948V203.929C364.948 203.866 364.936 203.805 364.912 203.747C364.888 203.689 364.853 203.636 364.809 203.592C364.764 203.548 364.712 203.513 364.654 203.489C364.597 203.465 364.535 203.452 364.473 203.452H353.065C353.002 203.452 352.941 203.465 352.883 203.489C352.825 203.513 352.773 203.548 352.729 203.592C352.685 203.636 352.649 203.689 352.626 203.747C352.602 203.805 352.589 203.866 352.589 203.929V203.929V206.333H345.46V203.929C345.46 203.866 345.447 203.804 345.423 203.747C345.399 203.689 345.364 203.636 345.32 203.592C345.276 203.548 345.224 203.513 345.166 203.489C345.108 203.465 345.047 203.452 344.984 203.452H333.576C333.514 203.452 333.452 203.465 333.394 203.489C333.337 203.513 333.284 203.548 333.24 203.592C333.196 203.636 333.161 203.689 333.137 203.747C333.113 203.805 333.101 203.866 333.101 203.929V203.929V206.333H325.971V203.929C325.971 203.866 325.959 203.805 325.935 203.747C325.911 203.689 325.876 203.636 325.832 203.592C325.788 203.548 325.735 203.513 325.678 203.489C325.62 203.465 325.558 203.452 325.496 203.452H314.088C314.026 203.452 313.964 203.465 313.906 203.489C313.848 203.513 313.796 203.548 313.752 203.592C313.708 203.636 313.673 203.689 313.649 203.747C313.625 203.805 313.613 203.866 313.613 203.929V203.929V206.333H306.483V203.929C306.483 203.866 306.471 203.805 306.447 203.747C306.423 203.689 306.388 203.636 306.344 203.592C306.3 203.548 306.247 203.513 306.189 203.489C306.132 203.465 306.07 203.452 306.008 203.452H294.6C294.537 203.452 294.476 203.465 294.418 203.489C294.36 203.513 294.308 203.548 294.264 203.592C294.22 203.636 294.184 203.689 294.161 203.747C294.137 203.805 294.124 203.866 294.124 203.929V203.929V206.333H286.995V203.929C286.995 203.866 286.982 203.805 286.958 203.747C286.934 203.689 286.899 203.636 286.855 203.592C286.811 203.548 286.759 203.513 286.701 203.489C286.643 203.465 286.582 203.452 286.519 203.452H275.111C274.985 203.452 274.864 203.503 274.775 203.592C274.686 203.681 274.636 203.803 274.636 203.929V206.333H267.506V203.929C267.506 203.866 267.494 203.804 267.47 203.747C267.446 203.689 267.411 203.636 267.367 203.592C267.323 203.548 267.27 203.513 267.213 203.489C267.155 203.465 267.093 203.452 267.031 203.452H255.623C255.497 203.452 255.376 203.503 255.287 203.592C255.198 203.681 255.148 203.803 255.148 203.929V206.333H233.283C230.257 206.333 227.356 207.539 225.216 209.685C223.077 211.83 221.875 214.741 221.875 217.775V222.949C221.875 225.983 223.077 228.893 225.216 231.039C227.356 233.185 230.257 234.39 233.283 234.39H612.592C615.618 234.39 618.519 233.185 620.659 231.039C622.798 228.893 624 225.983 624 222.949V217.775C624 216.273 623.705 214.785 623.132 213.397C622.558 212.008 621.718 210.747 620.659 209.685C619.599 208.622 618.342 207.779 616.958 207.204C615.574 206.629 614.09 206.333 612.592 206.333V206.333Z" fill="#3F3D56"/>
</g>
<defs>
<linearGradient id="paint0_linear" x1="379.338" y1="1041.77" x2="379.338" y2="793.659" gradientUnits="userSpaceOnUse">
<stop stop-color="#808080" stop-opacity="0.25"/>
<stop offset="0.54" stop-color="#808080" stop-opacity="0.12"/>
<stop offset="1" stop-color="#808080" stop-opacity="0.1"/>
</linearGradient>
<clipPath id="clip0">
<rect width="470" height="374" fill="white" transform="translate(0 697)"/>
</clipPath>
<clipPath id="clip1">
<rect width="554" height="238" fill="white" transform="translate(70)"/>
</clipPath>
</defs>
</svg>
